<?xml version="1.0" encoding="UTF-8"?>
<svg id="Layer_1" data-name="Layer 1" xmlns="http://www.w3.org/2000/svg" viewBox="0 0 1069 1080">
  <defs>
    <style>
      .cls-1 {
        fill: #003221;
      }

      .cls-1, .cls-2 {
        stroke-width: 0px;
      }

      .cls-2 {
        fill: #eeebde;
      }
    </style>
  </defs>
  <g>
    <path class="cls-1" d="M1029.43,29.4c.3-6.9,1.54-13.81.87-21.01,1.99,7.9,7.11,13.67,12.74,20.47.65-3.91-1.27-5.77-2.26-7.91-2.24-4.83-6.04-8.83-7.35-14.17-.63-2.6-2.96-3.19-5.25-2.98-2.49.22-3.26,2.27-3.41,4.41-.34,4.79-.37,9.6-.95,14.37-4.45,36.8-25.5,61.77-59.39,77.38-13.87,6.39-28.71,8.54-43.61,10.16-1.72.19-3.68.67-5.64-1.5,8.45-1.46,16.45-2.71,24.39-4.25,26.06-5.05,48.15-17.65,64.59-38.17,10.85-13.53,17.39-29.52,17.47-47.07.02-4.79-.33-9.56.67-14.37.91-4.4,2.87-5.71,7.34-4.1,14.73,5.28,21.19,18.05,21.13,33.86-.07,19.24-11.12,32.41-23.26,45.03-25.64,26.65-57.44,44.78-90.14,61.39-10.46,5.31-21.12,10.24-31.77,15.16-1.91.88-2.18,2.32-2.59,3.8-6.07,21.86-16.88,42.11-24.58,63.42-11.71,32.4-26.58,63.63-39.85,95.46-6.48,15.54-14.86,30.36-21.58,45.82-9,20.69-18.91,40.99-28.61,61.37-13.36,28.08-27.38,55.87-41.17,83.77-9.19,18.59-18.68,37.06-28.99,55.02-8.89,15.49-16.99,31.45-27.27,46.27-9.2,13.27-15.54,28.16-23.58,42.13-11.27,19.6-22.48,39.23-34.69,58.28-26.13,40.79-52.49,81.45-79.16,121.92-26.59,40.35-57.02,78.07-86.17,116.68-19.21,25.44-40.72,48.87-63.15,71.52-12.74,12.86-26.78,24.71-42.22,34.13-19.42,11.84-40.56,20.44-63.23,23.79-11.07,1.64-21.46-.3-30.25-7.38-1.98-1.59-3.33-3.53-4.06-5.73-1.83-5.53-4.6-10.58-7.89-15.26-9-12.8-5.87-26.04-.54-39.42,11.69-29.37,33.49-52.42,52.43-77.22,14.55-19.06,30.91-36.9,44.56-56.52,22.91-32.92,46.86-65.13,69.86-97.98,15-21.42,31.41-41.91,46.67-63.2,13-18.12,24.97-36.85,37.61-55.17,11.02-15.97,22.03-31.99,32.1-48.52,13.15-21.58,28.61-41.84,41.09-63.68,14.35-25.12,31.14-48.93,43.81-74.95,3.28-6.73,7.36-13.17,11.57-19.43,7.44-11.06,12.76-23.18,18.75-34.89,8.08-15.78,16.22-31.55,25.43-46.69,11.67-19.17,20.45-39.72,32.13-58.81,27.56-45.02,49.14-92.81,72.77-139.67,8.14-16.14,17.16-31.91,24.83-48.27,7.25-15.47,14.46-30.98,23.07-45.79,10.02-17.24,18.77-35.22,31.86-50.72,9.8-11.61,26.76-13.48,39.54-5.92,10.47,6.2,13.38,15.06,14.7,26.01,2.23,18.46-.17,36.63-4.33,54.73-1.24,5.4-1.8,10.03,2.18,14.45,3.29,3.65,3.52,9.64,9.32,12.25-1.69-6-5.66-10.13-7.35-15.52,4.1,4.3,6.05,10.23,11.1,14.02-2.21-3.88-4.42-7.76-6.63-11.64,6.29,2.93,6.6,10.22,11.49,14.15-.75-5.03-4.01-8.77-6.21-13-1.72-3.3-1.26-4.62,2.67-4.47-1.44.82-2.18,2.05-1.39,3.49,2.39,4.41,4.93,8.73,7.41,13.09.89-5.36-3.29-8.5-3.45-13.23,1.91,2.3,3.42,4.8,4.78,7.37,4.23,7.95,8.45,8.07,15.01.03-8.21.47-6.41-8.84-12.63-10.69,2.19,3.85,4.39,7.7,6.94,12.19-2.71-.37-2.77-2.79-4.5-2.65-.95,1.97,1.85,3.24,0,5.47-1.93-3.39-3.75-6.55-5.53-9.73-1.53-2.74-2.79-5.78-6.91-5.39,7.94-2.03,15.85-4.25,24.04-4.79-3.78,1.36-1.68,3.43-.66,5.07,2.01,3.23,3.57,6.43.53,11.29,3.23-1.84,5.21-2.88,7.09-4.07,1.27-.8,1.68-2.42.07-2.56-6.39-.54-4.82-6.55-7.24-9.76,2.81,1.78,3.07,5.45,5.85,7.81,1.2-2.87-1.24-4.89-1.24-7.54.57.38.78.45.87.59,6.04,9.66,6.14,9.82,16.05,3.33,8.25-5.4,16.88-10.28,24.49-16.62.87-.72,2.31-1.06,2.01-3.22-4.31,1.86-6.75-.66-8.56-4.37-2.49,2.93.48,4.19-.09,6.27-1.88.2-1.97-2.52-4.34-2.86.8,2.32,1.49,4.34,2.24,6.55-3.41.48-.85-4.64-4.26-3.67-1,.67-.28,1.36-.13,2.07.31,1.52,3.08,2.99.62,4.41-.88.51-2.98,2.78-4.65.34-1.33-1.94-3.79-4.34-1.71-6.22,4.36-3.93,9.43-7.12,14.3-10.48,1.66-1.14,2.04,1.56,3.83,1.4-2.6-4.8,1.04-7.82,4.3-9.63,2.7-1.49,2.21,3.51,4.79,4,.05-.04.57-.41.53-.48-5.67-11.28,6.92-15.25,9.41-24.52,2.87,5.05,4.84,8.5,7.3,12.82-4.91-1.9-2.56-7.96-9.03-9.27,2.33,4.1,3.99,7.06,5.69,9.98,1.13,1.93,1.34,4.22-.61,5.36-2.57,1.5-3.28-1.18-4.31-2.76-.95-1.45-1.23-3.4-3.4-4.37-1.11,3.37,1.38,5.56,2.23,8.15.51,1.54,1.5,3.09-.83,3.95-2.01.74-2.22-1.05-2.83-2.23-.76-1.48-1.14-3.37-3.51-3.5-.37,2.09,1.06,3.38,1.8,4.86,1.84,3.71,2.11,6.43-3.5,5.37-1.93-.37-1.81.61-1.28,1.4,1.5,2.23-.5,3.62-1.4,5.41,9.8-4.67,16.58-12.59,23.83-19.89,5.49-5.53,10.34-11.6,13.92-18.55,1.71-3.32,2.03-5.7-2.79-6.74,2.44,9.24-6.25,13.54-9.74,20.19-.7,1.34-2.56,1.34-3.3-.47-1.57-3.85-3.84-7.29-5.93-10.86-1-1.7-.21-4.01.79-5.76,1.5-2.61,2.94,1.55,5-.29-3.67-2.45-2.03-5.6-.79-8.8.86-2.2,2.75-4.1,2.4-6.67,1.93,4.42,3.64,8.98,8.01,11.73-2.25-4.14-.8-10.86-8.07-11.52,1.24-1.85.78-3.88.86-5.86,2.98,5.24,5.02,11.1,9.97,15.11-.94-5.78-4.02-10.47-7.24-15.06-.61-.87-1.87-.39-2.81.14ZM908.36,133.35c2.77-.17,7.88,2.37,3.91-5.7,4.01,5.15,4.83,10.32,9.55,12.75-.17-3.86-2.22-6.88-4.3-9.71-1.98-2.7-2.46-8.47-5.91-7.53-2.71.74-2.74,6.49-3.01,10.23-1.03,4.49,4.02,6.39,4.1,10.34-1.56-.61-1.85-3.63-4.75-2.57.78,1.62,1.31,3.39,2.35,4.77,1.49,1.97,3.9,2.24,5.94.97,2.43-1.52.35-3.17-.42-4.56-1.91-3.45-3.95-6.83-7.47-8.99ZM851.6,103.09c3.73,1.69,5.24-.26,6.3-3.56,1.17-3.65,1.35-7.85,5-10.36-.65,4.2-3.5,7.91-2.4,14.07,3.94-7.73,7.67-13.71,9.68-20.44.52-1.73.82-4.19-1.32-4.6-2.61-.51-1.42,2.21-2.05,3.44-.66,1.3-.27,3.29-3.44,3.84,1.67-4.28,4.3-8.14,2.93-12.37-1.4-.11-1.86.61-2.12,1.34-2.19,6.04-5.02,11.94-6.98,17.93-1.32,4.04-5.97,6.23-5.38,10.78-4.33-.03-6.98,1.85-7.25,6.42,1.37-3.23,10.3,1.8,7.04-6.48ZM590.74,648.79c7.58-6.12,9.83-15.84,16.38-22.68.49-.51.44-2.14-.02-2.77-1.02-1.39-1.83,1.23-3.16,1.05,7.05-11.81,13.63-23.32,20.68-34.55,15.3-24.37,27.8-50.12,41.53-75.27,15.09-27.65,31.28-54.78,45.92-82.64,8.45-16.09,17-32.2,24.53-48.72,1.95-4.28,6.16-7.22,7.43-11.14,4.97-15.37,13.05-29.29,20.5-43.55,1.12-2.15,3.98-1.37,4.45-4.56,1.15-7.73,7.03-14.01,8.59-21.86.4-2,.94-5.79,5.09-5.95,1.28-.05,1.82-1.88.79-2.86-1.67-1.58-.29-2.83.13-4.3,3.69-12.88,10.99-24.42,15.43-37.06,1.49-4.24,2.19-9.08,4.75-12.76,7.9-11.36,12.84-24.21,17.29-36.65,6.46-18.05,13.22-35.99,20.26-53.84,1.96-4.97,2.19-4.89-2.84-8.8-2.21,14.68-9.93,27.05-15.79,40.12.82-6.81,4.94-12.7,5.81-19.75-8.67,13.5-11.35,28.9-18.85,42.69-4.67,8.59-7.85,18.53-11.46,27.95-1.19,3.11-3.98,5.44-4.87,8.36-3.59,11.79-6.89,23.59-15.45,33.31-.93,1.05-3.32,3.36-2,3.59,4.61.83,1.22,3.38.74,4.07-4.52,6.59-7.73,13.67-9.96,21.2-.28.93-.72,2.18-1.47,2.58-5.67,3.03-7.14,8.86-9.63,13.79-16.63,32.85-32.41,66.1-49.61,98.68-21.83,41.35-44.62,82.25-67.25,123.21-13.59,24.61-28.37,48.59-43.1,72.6-28.4,46.3-59.28,91.08-90.13,135.88-9.38,13.62-19.27,26.92-28.92,40.36-.77,1.07-2.27,1.89-1.41,3.53.52.99,2.48-1.98,2.24.61-.13,1.38-1.4,1.83-2.8,1.17-2.39-1.14-2.74,1.23-3.56,2.31-6.2,8.14-12.39,16.3-18.38,24.59-23.77,32.85-49.27,64.42-75.32,95.57-4.04,4.83-4.84,11.98-11.99,14.69-3.38,1.28-.81,5.65-3,8.11-4.2,4.72-8.22,9.58-12.32,14.38-12.7,14.86-27.52,27.85-39.96,42.95-1.36,1.65-3.09,3.12-2.39,6.26,8.84-9.11,17.67-18.23,26.51-27.35.14.13.27.27.41.4-3.29,3.98-6.57,7.96-9.86,11.95.97-1.82,6.38,4.43,4.8-2.36-.31-1.32,3.47-3.68,5.53-5.71.03,2.07-2.88,2.82-1.58,5.44,2.86-2.89,7.94-5.87,7.78-8.31-.36-5.23,3.65-8.44,5.92-8.96,6.68-1.53,8.92-7.43,12.75-11.14,11.46-11.08,22.1-23.14,30.88-36.41,8.33-12.59,19.7-22.65,28.56-34.93,11.24-15.58,24.51-29.93,36.32-45.22,16.69-21.6,32.35-43.94,48.88-65.67,16.56-21.76,30.93-44.91,46.87-67.08,11.7-16.27,22.68-33.04,34.63-49.17,2.18-2.94,4.77-5.69,4.83-9.59l-.11.21ZM300.37,975.39c.53,1.55-2.04,2.59-.64,4.76,5.65-6.84,12.33-12.56,16.33-20.38,3.17-1.79,5.4-4.64,6.96-7.6.57-1.08-1.45-3.04.49-5.33,5.98-7.07,12.08-14.04,17.68-21.43,3.97-5.24,7.27-11.13,14.21-14.44,4.83-2.31,7.13-8.73,10.78-13.11,20.26-24.26,38.15-50.16,56.84-75.51.72-.98,1.94-2.85,1.09-3.03-4.38-.93-.48-2.91-.13-2.87,4.41.45,5.25-3.52,7.53-5.66,3.72-3.47,4.08-8.97,7.5-12.33,4.5-4.42,8.1-8.96,9.22-15.15.34-1.88.64-4.19,3.81-3.08,1.55.54,1.97-1.03,2.65-1.96,6.81-9.43,13.81-18.75,20.37-28.34,11.75-17.18,23.98-34.05,35.21-51.58,11.2-17.48,23.47-34.33,35.23-51.49,1.96-2.86,5.87-6.92,5.08-8.61-2.32-4.95,2.48-5.57,3.78-8.16.54-1.08.98-2.21,1.48-3.3,1.94-4.2,2.98-8.67,8.58-10.62,2.96-1.03,4.41-5,5.94-8.24-2.23-.36-3.5,1.59-3.4,1.41,3.96-7.11,8.76-13.82,12.33-21.07,3.23-6.55,10.42-10.62,11.69-18.23.06-.35.84-.77,1.34-.88,5.29-1.12,6.46-5.52,6.39-9.36-.13-7.21,7.97-10.28,8.38-16.94,0-.14.32-.4.4-.38,4.47,1.47,5.22-3.04,6.06-4.85,2.74-5.95,6.63-11.2,9.76-16.89,3.24-5.88,6.48-11.78,10.06-17.47,2.91-4.62,2.28-11.07,8.09-14.21.57-.31.55-1.54,1.05-2.16,6.97-8.67,7.95-19.73,13.03-29.12,9.52-17.59,19.19-35.11,29.08-52.52,2.36-4.16,5.55-8.22,7.49-12.32,5.49-11.6,12.14-22.62,17.8-34.12.44-.9.43-2.78,2.1-2.39,2.8.65,2.9-1.42,2.43-2.63-1.16-2.96.71-4.99,1.88-7.27,5.9-11.49,12.95-22.41,18.3-34.17,2.68-5.9,5.46-11.78,8.59-17.46,19.07-34.54,33.41-71.25,53.66-105.22,3.17-5.32,3.38-11.3,6.24-16.68,7.93-14.89,15.59-29.94,22.81-45.15,2.5-5.26,7.36-10.14,6.77-16.05-.58-5.86,4.91-10.58,2.76-16.4-.16-.44.74-1.83,1.27-1.92,6.48-1.06,2.63-8.95,7.76-10.81-.16-7.73,5.24-13.28,8.65-19.61.67-1.25,2.06-2.83.69-3.73-5-3.25,2.11-3.98,1.41-6.24,5.51,1,5.75-4.09,8.04-6.78,1.71-2.01,3.33-4.13,4.97-6.18,4.49-5.63,10.7-8.93,16.52-12.85-8.4.68-13.3,7.11-19.63,11.49,1.38-3.59,4.71-5.4,6.68-8.3-4.43,2.36-8,5.58-10.86,9.65-17.82,25.37-32.07,52.63-45.85,80.08-19.97,39.79-39.25,79.89-58.88,119.83-13.64,27.74-28.02,55.13-42.35,82.55-29.12,55.76-59.56,110.86-90.57,165.67-12.54,22.16-25.42,44.19-38.67,65.98-30.37,49.91-62.82,98.59-95.92,146.86-32.53,47.43-66.29,94.04-100.3,140.49-27.23,37.2-55.72,73.46-85,109.16-13.87,16.91-29.25,32.99-38.29,53.03-4.26,9.44-10.85,19.25-4.63,31.51,1.88-4.11,2.31-7.31,3.48-10.24,3.57-8.91,11.63-15.25,14.72-24.38.12-.36,1.49-.23,2.14-.58,6.05-3.28,11.17-7.45,13.91-13.91-1.15-.92-1.92.41-2.86.41.35-.75.58-1.61,1.09-2.24,2.43-3.01,4.94-5.97,7.43-8.94ZM335.65,1019.82c7.32-4.04,10.05-12.57,6.25-19.53-4.48-8.21-13.3-10.92-21.12-6.47-7.79,4.43-10.98,14.05-7.11,21.45,3.58,6.85,13.94,8.99,21.98,4.55ZM863.23,143.34c8.66-4.92,10.45-12.01,5.28-20.88-3.14-5.4-12.23-6.87-19.09-3.08-6.7,3.69-9.85,12.8-6.49,18.77,4.27,7.59,12.43,9.68,20.3,5.2ZM344.04,1059.57c-9.83,3.09-20.92,2.33-29.36,9.86-.99.88-2.25.5-3.45.03-5.8-2.29-11.56-3.83-16.65,2.06-.84.97-1.94,1.32-3.32.91-1.45-.44-3.52-2.37-4,1.08-.48,3.42,2.08,2.57,4,2.47,18.87-.98,36.47-6.45,52.79-16.41ZM281.29,1021.93c-2.99,1.7-4.57,4.28-6.19,6.91-4.37,7.09.24,14.91-2.77,22.1-.09.21.44.93.56.9,4.73-1.19,6.85,3.62,10.83,4.17,1.68.23,3.54.62,4.25-1.2.76-1.96-1.46-1.94-2.58-2.47-3.46-1.63-6.19-3.88-6.07-7.98.19-6.39,1.68-12.48,5.61-17.96,1-1.4,4.06-2.61,1.83-4.9-1.75-1.8-3.76.05-5.46.41ZM305.05,1018.06c1.23-1.2,2.22-2.22,3.28-3.18,2.26-2.05,2.07-4.98.58-6.38-1.7-1.6-3.21,1.11-4.83,2.15-1.85,1.19-3.13,5.9-6.55,2.06-.36,4.05-3.76,4.86-6.75,6.1.2.34.31.88.6.98,4.35,1.46,1.43,3.37.02,4.89-1.93,2.07-3.97,4.12-6.27,5.79-2.06,1.5-2.31,3.94-1.38,4.93,1.93,2.07,3.07-.75,4.04-1.89,1.87-2.19,3.53-4.2,6.66-4.95,2.4-.58,4.44-2.94,5.04-5.04.94-3.24,1.91-5.62,5.56-5.46ZM838.12,130.93c1.59-3.7,2.59-7.58,5.26-10.63,3.23-3.7,7.3-5.88,12.18-6.48,2.95-.36,2.8-3.63,4.8-4.91.06-.04-.32-1.24-.67-1.34-2.29-.62-3.01,1.49-4.37,2.59-.89.72-2.13,1.1-3.26,1.44-7.25,2.17-11.68,7.22-14.56,13.75-.76,1.73-1.92,3.77.62,5.57ZM873.82,122.38c-.48,7.24-.47,12.86-3.63,17.83-3.3,5.19-9.39,6.63-14.93,10.17,14.27-.86,24.52-15.48,18.56-28ZM1044.79,46.95c-2.07-9.04-7.39-16.32-12.55-23.69,2.4,8.86,7.3,16.37,12.55,23.69ZM268.1,1046.62c-2.93-3.82-6.63.92-9.67-.71-.36,1.49-1.94,2.97-.88,4.47,1.87,2.64,4.65,2.67,7.47,1.41,2.27-1,3.46-2.78,3.08-5.17ZM922.88,143.99c9.74-2.61,11.95-5.54,8.25-10.58-1.21,9.01-4.98,3.75-8.98.45.44,4.35,3.33,6.85.74,10.13ZM874.51,64.89c3.01-4.91,5.83-9.92,5.22-15.87-2.27,5.13-5.85,9.85-5.22,15.87ZM858.51,65.18c3.48-5.07,7.94-9.51,9.54-15.95-6.63,7.38-7.46,8.72-9.54,15.95ZM920.18,131.04c.5-.22,1.01-.44,1.51-.66-2.16-3.8-4.3-7.62-6.52-11.39-.44-.76-.93-2.01-2.16-1.35-1.63.87-.63,2.03-.02,2.94,2.36,3.51,4.78,6.98,7.18,10.46ZM735.52,390.19c5.12-2.43,5.15-6.39,6.31-9.69-3.59,1.92-4.91,5.14-6.31,9.69ZM1046.79,42.37c.02-4.25-2.1-7.3-5.65-11.15.12,5.65,2.5,8.61,5.65,11.15Z"/>
    <path class="cls-1" d="M807.42,122.87c-1.63-2.61-4.07-1.27-6.04-.69-26.74,7.96-53.59,15.67-79.41,26.47-16.72,6.99-33.19,14.64-49.57,22.44-50.62,24.13-98.68,52.95-146.99,81.25-34.93,20.46-69.03,42.32-103.47,63.63-33.93,20.99-68.03,41.75-103.39,60.23-32.39,16.92-63.91,35.48-96.89,51.27-27.71,13.26-54.98,27.42-83.2,39.64-23.84,10.33-47.06,22.11-70.69,32.94-14.4,6.6-29.04,12.66-43.61,18.89-2.03.87-4.33,1.19-5.42,3.56,11.78.14,196.37-86.63,263.04-121.6,85.86-45.03,166.92-98,250.16-147.43-2.48,3.57-6.45,5.14-10,7.15-3.3,1.87-5.22,4.4-4.25,7.86,1.06,3.79,3.87,6.42,7.84,7.53,1.53.43,2.94-.55,3.77-1.66,1.68-2.26.15-4.13-1.09-5.89-.73-1.04-1.56-2.24-.17-3.05,2.02-1.17,2.39.74,2.7,1.99.81,3.25,1.34,8.12,5.31,7.13,3.01-.75,1.12-5.6,1.08-8.65,0-.54.06-1.07.1-1.81,6.76,8.13,6.5,8.18,1.07,15.7-1.56,2.16-1.78,2.34-3.52.83-2.29-2-5.38-1.89-7.2.16-2.09,2.35-.12,4.72,1.64,6.69,2.91,3.23,5.24,5.95,10.64,2.32,4.89-3.28,2.76,2.71,4.35,4.15-2.61-.53-5.05-2.28-7.4.05-1.83,1.82-.84,3.9.31,5.47,1.62,2.21,5.55,5.6,6.21,4.5,2.25-3.73,6.62-2.53,8.57-4.8,2.04-2.38-.24-5.73-.35-8.67-.03-.9-1.28-1.54-.15-3.24,1.64,2.87,3.22,5.37,4.52,8.02,1.21,2.46,2.59,4.89-1.09,7.18-2.53,1.57-1.73,4.69-2.09,7.17-.46,0-1,.14-1.16-.04-1.92-2.25-4.25-4.26-7.25-2.23-2.95,2,1.69,3.54.81,5.65-1.04,2.51,4.78,4.04,1.58,5.66-2.75,1.4-3.48-2.97-4.54-5.01-7.5-14.38-15.59-28.39-25.09-41.56-.77-1.07-1.12-2.51-3.12-3.08,1.47,9.11,9.98,14.56,10.75,23.08-5.96-6.59-9.68-15.81-18.63-20.6,3.05,5.39,6.38,10.52,9.14,15.99,1.92,3.8,5.17,6.94,4.6,11.83-.14,1.19.86,2.67,1.73,3.69,13.73,15.95,18.87,35.27,21.28,55.69.03.29.52.52,1.72,1.65,2.07-21.79-6.28-39.82-13.04-58.72,1.23,2.16,2.5,4.29,3.67,6.47,1.21,2.27,2.32,4.6,3.49,6.89,7.31,14.34,5.4,14.03,19.55,6.3,18.49-10.1,36.74-20.68,55.37-30.5,39.83-21.01,79.14-43.03,119.69-62.63,8.15-3.94,16.51-7.43,24.9-10.9-13.52,8.95-27.92,16.77-42.75,22.71-22.77,9.12-43.38,21.9-64.68,33.57-8.69,4.76-17.26,9.77-25.98,14.47-24.55,13.23-49.13,26.38-73.75,39.48-3.47,1.85-4.07,3.63-3.33,7.65,1.42,7.68-.34,15.66-1,23.53-1.71,20.45-15.33,32.69-30.99,43.95-47.09,33.88-97.8,61.69-148.85,88.94-27.53,14.69-54.98,29.53-82.66,43.93-28.59,14.88-57.28,29.57-86.16,43.86-30.9,15.29-62.08,30.01-93.13,45.01-13.2,6.38-26.31,12.95-39.55,19.26-8.35,3.98-8.33,3.67-12.12-4.17-6.19-12.82-12.54-25.57-19.15-38.18-6.79-12.96-12.06-26.7-19.81-39.16-1.46-2.34-2.43-5.44-4.58-6.83-8.93-5.76-7.47-15.52-9.6-23.91-.77-3.03,1.37-4.18,3.51-5.63,8.49-5.75,18.24-8.61,27.55-12.47,21.89-9.09,43.56-18.69,64.96-28.93,31.83-15.22,63.78-30.18,95.57-45.48,16-7.7,31.72-15.98,47.62-23.87,12.02-5.97,24-12.04,36.22-17.54,13.6-6.12,26.13-14.15,39.3-21.01,37.22-19.39,72.89-41.45,108.32-63.8,48.4-30.54,97.34-60.14,146.68-89.12,16.73-9.82,34.16-18.28,50.93-27.97,15.36-8.87,31.18-16.87,47.12-24.6,25.07-12.14,50.59-23.26,76.65-33.08,19.68-7.41,40.01-12.49,60.16-18.23,1.37-.39,3.3-2.02,4.37-.09.75,1.34-.5,2.61-1.92,3.31l.21.07ZM502.58,321.41c-48.3,22.62-95.54,47.38-143.03,71.63.26.55.52,1.1.78,1.65,12.97-6.53,25.95-13.06,38.92-19.58-58.24,31.41-117.33,61.09-177.22,89.21,6.43-3.66,12.86-7.32,19.29-10.98-.18-.33-.37-.66-.55-.99-35.36,17.57-70.73,35.13-106.09,52.7.25.52.5,1.04.76,1.57,26.63-13.02,53.26-26.04,79.89-39.06-45.67,25.13-93.61,45.82-138.79,71.92,8.07-1.43,14.69-6.13,21.95-9.43-23.44,14.58-49.3,24.66-72.92,39.04-2.66-3.75.14-6.47,4.22-9.56-6.16,1.9-6.28,1.93-7.45-2.96-2.61-10.89-6.43-21.5-6.28-33.01-5.24,1.1-8.58,5.23-13.74,5.62.86,1.5,2.09,2.66,2.12,3.88.2,9.54,4.62,16.95,9.56,24.86,10.61,17,19.65,34.99,29.12,52.68,3.45,6.44,6.09,13.32,9.45,19.81,6.34,12.22,6.45,12.16,19.17,6.11.56-.27,1.13-.5,1.69-.77,27.52-13.18,55.49-25.52,82.45-39.77,34.84-18.42,70.63-34.87,105.48-53.27,16.36-8.63,32.84-17.11,49.41-25.38,40.84-20.4,81.03-42.04,120.56-64.95,33.07-19.16,65.72-38.78,95.47-62.9,8.94-7.25,12.68-15.87,10.77-26.54-4.55-25.43-15.65-48.18-28.97-69.84-2.73-4.44-5.23-10.03-11.8-12.49,1.28,6.67,6.04,10.13,8.83,14.78,1.81,3.02,3.58,5.78-2.66,9.06,6.03-1.47,7.97,2.94,7.96,4.01-.07,5.61-6.76,5.93-10.11,10.05,4.41-.83,7.28-4.27,12.78-4.62-2.96,2.17-4.72,3.46-6.58,4.83,2.36,1.52,4.06-2.31,6.6-.17-28.92,14.5-57.56,28.85-86.2,43.21,24.45-14.59,50.7-25.72,75.16-40.34ZM148.84,490.8c-9.88,11.01-24.69,13.83-36.33,21.49.26.44.53.88.79,1.32,25.65-12.68,51.3-25.35,76.95-38.03-15.38,4.33-28.77,13.4-44.13,18.01.91-.93,1.81-1.87,2.72-2.8ZM326.71,412.15c-.35-.7-.69-1.41-1.04-2.11-26.61,14.16-53.89,26.99-80.92,40.31.28.56.55,1.11.83,1.67,27.04-13.29,54.09-26.58,81.13-39.87ZM496.12,321.11c-28.25,12.88-56.36,25.95-83.34,41.2.23.45.47.91.7,1.36,27.55-14.19,55.09-28.38,82.64-42.57ZM361.74,387.88c.28.47.57.93.85,1.4,15.58-7.84,31.16-15.67,46.74-23.51-.26-.52-.52-1.04-.78-1.56-15.6,7.89-31.2,15.78-46.81,23.67ZM27.83,564.74c13.97-4.45,25.63-13.38,38.63-19.7-13.31,5.73-26.74,11.24-38.63,19.7ZM307.08,415.37c.29.65.57,1.3.86,1.95,14.78-7.55,29.55-15.1,44.33-22.65-16.25,4.56-29.76,14.54-45.19,20.7ZM45.96,546.15c.3.52.6,1.05.9,1.57,14.07-7.23,28.14-14.45,42.21-21.68-.25-.49-.5-.98-.76-1.48-14.12,7.2-28.24,14.39-42.35,21.59ZM250.59,443.62c.22.45.44.89.66,1.34,13.83-6.45,27.66-12.91,40.44-21.47-13.7,6.71-27.4,13.42-41.1,20.13ZM103.88,522.02c-6.5,1.51-36.15,16.76-39.73,20.91,13.91-7.36,27.02-12.46,39.73-20.91ZM32.38,558.39c10.64-3.38,19.67-9.7,29.06-15.38-9.72,5.1-20.28,8.53-29.06,15.38ZM198.77,466.29c-12.94,4.82-24.65,12.2-37,18.25,12.63-5.48,25.58-10.28,37-18.25ZM106.5,519.53c.27.55.54,1.09.81,1.64,7.77-4.42,15.54-8.85,23.31-13.27-8.43,3.08-16.74,6.44-24.12,11.63ZM247.27,447.03c-.17-.51-.34-1.02-.51-1.53-8.47,4.23-16.95,8.45-25.42,12.68.26.54.52,1.08.77,1.62,8.39-4.26,16.77-8.51,25.16-12.77ZM196.88,470.29c.27.46.54.93.81,1.39,6.76-2.3,12.61-6.45,18.42-10.72-6.41,3.11-12.82,6.22-19.23,9.33ZM330.81,408.46c5.79-.68,10.79-2.97,16.35-8.17-7.48,1.33-11.48,5.62-16.35,8.17ZM91.69,523.76c7.91-2,14.58-5.7,16.42-9.35-5.59,3.18-10.59,6.03-16.42,9.35ZM454.25,338.47c-.3-.48-.6-.96-.9-1.44-5,2.29-9.92,4.72-13.75,8.98,4.88-2.51,9.77-5.02,14.65-7.53Z"/>
    <path class="cls-1" d="M807.21,122.8c-2.59,8.95-7.7,16.86-11.82,25.16-9.77,19.66-19.95,39.14-29.94,58.7-1.44,2.82-3.46,4.45-6.56,5.89-20.8,9.62-41.41,19.65-61.8,30.18-39.1,20.19-77.92,40.89-116.4,62.23-1.45.81-2.9,2.54-5.2.99,1.56-2.39,4.14-3.3,6.33-4.52,26.35-14.7,52.8-29.22,79.12-43.97,24.59-13.78,50.01-25.93,75-38.92,3.63-1.89,7.64-3.04,11.5-4.49,1.76-.66,3.83-1.23,4.1-3.27.2-1.51,3.34-2.06,1.45-3.93-1.21-1.2-2.96-1.1-4.62-.8-9.07,1.67-17.8,4.49-25.98,8.83-2.3,1.22-6.12.95-6.59.69-5.25-2.79-7.86,3.95-7.84,4.25.34,6.5-6.47,3.14-8.33,6.18-3.29-2.01-7.25.13-8.6,1.66-5.45,6.16-13.54,5.44-19.81,9.07-.34.2-1.05.07-1.16.29-3.16,6.25-11.25,6.26-15.1,11.78-2.34,3.36-7.11,2.38-10.24,4.64-.43.31-1.46-.09-1.77.24-5.67,5.92-14.84,7.26-19.41,14.66-1.39,2.25-3.24,4.01-6.55,3.31-1.33-.28-3.2.66-4.55,1.49-10.91,6.73-22.5,12.13-33.89,17.95-3.26,1.67-5.58,4.4-6.83,8.57-3.35-2.92-4.6-6.5-6.26-9.71-4.82-9.3-11.55-17.52-15.51-27.31-1.56-3.85-1.6-6.74,3.98-6.67.58,0,1.21-.27,1.75-.53,13.53-6.63,27.63-12.36,40.35-20.29,7.37-4.59,15.5-7.41,22.54-12.1,9.29-6.2,19.71-10.12,29-16.46,8.29-5.65,18.57-8.35,27.76-12.79,8.69-4.19,17.19-9.09,26.43-11.55,6.96-1.85,13.01-6.68,20.53-6.41,2.46.09,3.15-3.03,4.76-3.39,7.2-1.62,12.4-7.53,19.38-9.05,4.93-1.07,8.65-3.38,11.72-6.94,2.27-2.64,5.08-3.44,8.18-3.38,8.8.16,17.06-3.12,22.1-9.45,3.93-4.92,10.33-9.11,11.69-14.36,1.36-5.24,5.25-4.05,7.31-6.39,0,0-.21-.07-.21-.07Z"/>
    <path class="cls-1" d="M706.33,160.7c-10.44,4.8-20.77,9.86-31.35,14.32-12.9,5.44-24.33,13.81-37.62,18.47-6.61,2.32-11.53,7.7-17.83,10.95-15.9,8.19-31.4,17.18-46.93,26.06-9.67,5.53-19.11,11.46-28.65,17.21-.71.43-1.41.84-2.99-.27,5.8-3.75,11.23-7.52,16.9-10.9,24.43-14.6,49.74-27.61,74.75-41.18,22.84-12.39,46.16-23.76,69.8-34.49,1.37-.62,2.61-1.3,3.91-.12l.03-.05Z"/>
    <path class="cls-1" d="M569.68,308.68c-3.16-3.35-5.78-6.95-7.88-10.99-7.82-15.06-16.61-29.55-25.92-43.74-.82-1.25-1.85-2.16-.12-3.42,2.44-1.79,3.21.22,4.04,1.7,6.64,11.91,13.24,23.83,19.82,35.77,3.71,6.72,7.77,13.27,10.06,20.69Z"/>
    <path class="cls-1" d="M971.91,109.48c.32,1.08,1.94,3.04-.01,3.04-3.11,0-2.45,6.04-6.32,3.46-1.98-1.32-1.66-3.8-2.25-5.8,1.81,3.36,2.62-5.54,4.65-.52.25.63,1.29,2.06,1.78-.04.72-3.02,1.41-1.18,2.15-.14Z"/>
    <path class="cls-1" d="M982.65,107.38c-2.55-1.09-2.23-4.39-4.94-4.46-1.09-.03-2.17.06-1.97-1.3.09-.6.9-1.25,1.54-1.63.94-.57,1.93-.52,2.65.41,1.54,1.97,2.73,4.05,2.73,6.98Z"/>
    <path class="cls-1" d="M706.29,160.75c4.98-5,11.98-5.88,17.89-8.98-5.19,4.48-11.95,5.75-17.83,8.89-.02.04-.06.08-.06.08Z"/>
    <path class="cls-1" d="M590.85,648.58c-3.82,1.92-5.23,5.98-8.21,8.71,2.86-5.93,7.87-10.52,11.13-16.29.26,2.99-1.94,5.21-3.02,7.78,0,.01.1-.2.1-.2Z"/>
    <path class="cls-1" d="M331.26,998.16c5.97.48,6.14,4.64,6.41,8.08.35,4.5-1.7,8.28-6.26,10.12-6.51,2.63-14.15-3.14-13.26-9.85.13-.98.02-2.2,1.28-2.37,1.08-.14,2.11.73,1.94,1.76-.74,4.55.35,8.06,5.43,8.68,3.5.42,6.33-1.54,8.09-4.55,2.8-4.79-.02-8.17-3.63-11.86Z"/>
    <path class="cls-1" d="M864.68,126.09c2.58,4.57.89,10.59-3.68,13.09-5.17,2.83-10.99,1.68-13.4-2.66-2.2-3.96.28-10.78,4.92-13.59,4.02-2.42,9.87-.91,12.15,3.15ZM860.46,137.7c3.72-2.43,5.19-5.87,2.92-9.65-2.04-3.4-5.33-4.6-9.61-2.64-5.65,2.59-3.75,6.72-2.24,10.06,1.57,3.48,5.07,3.99,8.93,2.23Z"/>
    <path class="cls-1" d="M117.14,595.99c-7.13,5.45-14.32,8.09-21.04,11.94,1.76,1.59,2.81,0,4.85.67-6.58,3.86-12.57,7.22-20.14,10.23,3.01-4.08,6.77-4.24,9.7-5.89,1.92-1.08,1.98-1.01,1.87-4.13-.05-1.38,1.22-1.42,1.97-1.89,6.77-4.24,13.96-7.62,22.79-10.92Z"/>
    <path class="cls-1" d="M475.25,341.48c11.54-8.3,25.05-12.9,37.38-19.79-11.76,7.9-24.97,13.02-37.38,19.79Z"/>
    <path class="cls-1" d="M165.9,496.92c-11.2,5.5-22.41,11-33.62,16.5,9.5-6.91,20.84-10.37,30.75-16.52.94-.59,1.93-.58,2.8.13l.07-.11Z"/>
    <path class="cls-1" d="M76.12,545.26c-8.29,5.27-16.07,11.03-25.75,13,8.58-4.33,17.17-8.67,25.75-13Z"/>
    <path class="cls-1" d="M209.32,530.48c-9.01,4.51-18.02,9.03-27.04,13.54,8.05-6.3,17.59-9.56,27.04-13.54Z"/>
    <path class="cls-1" d="M165.83,497.04c8.8-6.94,19.72-9.75,29.25-15.28-9.01,6.43-19.37,10.2-29.17,15.14-.01.03-.08.14-.08.14Z"/>
    <path class="cls-1" d="M382.5,435.35c7.51-5.91,16.57-8.81,24.97-12.98-7.48,5.97-16.68,8.58-24.97,12.98Z"/>
    <path class="cls-1" d="M95.76,618.54c-7.74,6.06-16.68,9.95-25.32,14.42,8.44-4.81,16.88-9.61,25.32-14.42Z"/>
    <path class="cls-1" d="M272.48,447.42c-8.64,5.25-18.39,8.51-27.02,14.02,8.16-6.22,17.98-9.25,27.02-14.02Z"/>
    <path class="cls-1" d="M468.85,347.63c7.84-4.25,16.18-7.71,23.99-12.21-7.35,5.24-15.28,9.37-23.99,12.21Z"/>
    <path class="cls-1" d="M493.5,351.76c6.96-5.8,15.82-7.66,23.31-12.27-6.88,5.86-16,7.38-23.31,12.27Z"/>
    <path class="cls-1" d="M186.45,506.32c-8.8,5.34-17.54,7.36-24.8,12.39,7.52-4.54,14.73-9.67,24.8-12.39Z"/>
    <path class="cls-1" d="M398.09,423.88c6.78-5.01,14.08-8.98,22.18-11.33-6.94,4.7-15.17,6.78-22.18,11.33Z"/>
    <path class="cls-1" d="M262.2,449.28c6.7-4.9,14.08-8.43,21.75-11.09-6.5,5.01-15.17,5.94-21.75,11.09Z"/>
    <path class="cls-1" d="M531.38,368.26c-4.46,3.66-9.84,5.38-15.15,7.27,4.67-3.19,9.29-6.48,15.15-7.27Z"/>
    <path class="cls-1" d="M77.43,577.01c5.9-3.36,11.8-6.72,17.71-10.08.12.21.25.42.37.63-5.9,3.36-11.8,6.72-17.71,10.08-.12-.21-.24-.42-.37-.63Z"/>
    <path class="cls-1" d="M76.08,585.45c-5.88,3.35-11.76,6.7-17.64,10.04-.09-.15-.17-.29-.26-.44,5.8-3.3,11.6-6.61,17.4-9.91.16.1.33.2.49.3Z"/>
    <path class="cls-1" d="M498.14,396.77c-4.99,2.47-9.99,4.93-14.98,7.4-.05-.09-.1-.19-.15-.28,4.82-2.74,9.64-5.49,14.45-8.23.23.37.46.74.68,1.11Z"/>
    <path class="cls-1" d="M59.17,633.39c5.59-2.64,11-5.67,16.57-8.36-5.39,3.07-10.24,7.28-16.57,8.36Z"/>
  </g>
  <g>
    <path class="cls-2" d="M789.3,423.84v269.52c0,57.61,15.23,66.22,37.74,85.43h-184.76c27.15-16.56,39.73-33.77,39.73-85.43v-109.27h-229.13v109.27c0,54.96,15.23,69.53,39.73,85.43h-186.74c27.81-16.56,39.73-34.43,39.73-85.43v-270.18c0-51.65-12.58-69.53-39.73-86.09h186.74c-19.87,14.57-39.73,31.12-39.73,86.75v78.8h229.13v-78.8c0-50.99-12.58-72.18-41.72-86.75h189.39c-26.49,15.89-40.39,33.78-40.39,86.75Z"/>
    <g>
      <g>
        <path class="cls-2" d="M232.76,167.06l59.6,59.91-12.02,11.95-25.36-25.49-25.66,25.52,25.36,25.49-12.02,11.96-59.6-59.91,12.02-11.95,24.5,24.63,25.66-25.52-24.5-24.64,12.02-11.95Z"/>
        <path class="cls-2" d="M314,205.24c-7.57.49-14.77-.98-21.61-4.39-6.82-3.4-12.5-8.6-17.03-15.58-4.48-6.91-6.88-14.17-7.21-21.8-.33-7.63,1.27-14.8,4.8-21.51,3.53-6.71,8.62-12.22,15.25-16.53,6.71-4.34,13.82-6.75,21.37-7.21,7.54-.46,14.71,1.02,21.5,4.45,6.8,3.44,12.43,8.6,16.92,15.51,4.52,6.97,6.96,14.26,7.33,21.87.36,7.61-1.22,14.77-4.75,21.48-3.53,6.72-8.62,12.23-15.25,16.53-6.64,4.3-13.74,6.7-21.31,7.19ZM336.48,175.15c2-4.04,2.75-8.44,2.25-13.22-.5-4.78-2.28-9.53-5.36-14.28-3.07-4.74-6.68-8.29-10.81-10.66-4.14-2.37-8.45-3.45-12.93-3.24-4.48.21-8.85,1.7-13.12,4.46-4.27,2.77-7.42,6.17-9.48,10.19-2.05,4.03-2.84,8.42-2.36,13.15.47,4.74,2.25,9.49,5.32,14.22,3.07,4.74,6.69,8.31,10.84,10.71,4.16,2.4,8.5,3.51,13.04,3.31,4.54-.2,8.94-1.68,13.2-4.45,4.27-2.77,7.4-6.17,9.4-10.21Z"/>
        <path class="cls-2" d="M390.48,152.3l25.6-10.94,5.28,12.36-41.19,17.6-33.2-77.71,15.59-6.66,27.92,65.35Z"/>
        <path class="cls-2" d="M441.85,133.75l26.78-7.64,3.69,12.93-43.08,12.29-23.19-81.26,16.3-4.65,19.5,68.33Z"/>
        <path class="cls-2" d="M535.67,44.7l-21.28,58.29,3.77,29.17-16.81,2.17-3.76-29.17-35.52-50.96,18.97-2.45,22.96,35.97,12.94-40.61,18.73-2.42Z"/>
        <path class="cls-2" d="M672.52,53.53l-31.79,81.78-19.88-1.96-9.88-61.44-22.41,58.25-19.77-1.83-14.34-86.44,18.07,1.78,8.38,66.77,23.55-63.61,18.79,1.86,9.74,66.53,21.36-63.46,18.19,1.79Z"/>
        <path class="cls-2" d="M687.87,142.97c-4.95-5.75-8.13-12.37-9.53-19.88-1.4-7.5-.68-15.17,2.15-22.98,2.81-7.74,7.15-14.04,13.04-18.9,5.88-4.87,12.57-7.91,20.06-9.15,7.48-1.23,14.95-.5,22.38,2.19,7.51,2.72,13.73,6.95,18.65,12.69,4.92,5.74,8.05,12.34,9.42,19.83,1.36,7.49.64,15.11-2.17,22.85-2.83,7.81-7.18,14.16-13.02,19.03-5.85,4.88-12.51,7.93-20,9.16-7.49,1.24-14.95.51-22.38-2.19-7.43-2.69-13.63-6.92-18.59-12.67ZM725.42,142.75c4.43-.84,8.39-2.9,11.9-6.18,3.51-3.28,6.22-7.57,8.15-12.88,1.93-5.31,2.59-10.33,1.99-15.06-.6-4.73-2.34-8.81-5.21-12.26-2.87-3.44-6.69-6.03-11.47-7.76-4.78-1.74-9.4-2.21-13.84-1.42-4.45.79-8.42,2.8-11.92,6.04-3.5,3.24-6.21,7.51-8.13,12.83-1.93,5.31-2.6,10.35-2.01,15.11.59,4.77,2.34,8.9,5.23,12.39,2.89,3.5,6.73,6.12,11.51,7.85,4.78,1.73,9.38,2.18,13.81,1.34Z"/>
        <path class="cls-2" d="M772.03,179.07c-3.61-6.68-5.28-13.83-5.04-21.46.25-7.63,2.59-14.96,7.04-21.98,4.4-6.95,10-12.17,16.79-15.66,6.79-3.48,13.97-5.03,21.55-4.62,7.58.4,14.71,2.72,21.39,6.95,6.75,4.27,11.91,9.74,15.49,16.39,3.57,6.66,5.22,13.79,4.94,21.4-.27,7.61-2.62,14.89-7.02,21.84-4.44,7.03-10.05,12.29-16.8,15.8-6.76,3.51-13.93,5.06-21.5,4.66-7.58-.4-14.71-2.72-21.39-6.95-6.68-4.23-11.83-9.68-15.44-16.36ZM808.77,186.91c4.5.13,8.82-1.03,12.94-3.48,4.13-2.45,7.7-6.06,10.73-10.83,3.02-4.77,4.74-9.53,5.17-14.28.42-4.75-.4-9.11-2.46-13.09-2.06-3.98-5.25-7.33-9.54-10.05-4.3-2.72-8.7-4.17-13.22-4.36-4.52-.18-8.82.94-12.93,3.34-4.11,2.41-7.67,6.01-10.69,10.79-3.02,4.77-4.76,9.55-5.2,14.33-.45,4.78.37,9.19,2.45,13.23,2.08,4.04,5.26,7.42,9.56,10.14,4.3,2.72,8.7,4.14,13.2,4.27Z"/>
        <path class="cls-2" d="M923.89,203.57c2.44,7.18,2.74,14.35.93,21.52-1.82,7.17-5.67,13.79-11.56,19.89-5.89,6.09-12.36,10.14-19.4,12.15-7.04,2-14.19,1.91-21.45-.27-7.26-2.19-14.08-6.37-20.46-12.54l-21.24-20.53,58.72-60.77,21.24,20.53c6.38,6.17,10.79,12.84,13.22,20.02ZM881.37,242.61c6.85-.12,13.33-3.34,19.44-9.66,6.11-6.32,9.15-12.96,9.12-19.89-.03-6.94-3.24-13.49-9.62-19.66l-8.62-8.33-38.78,40.14,8.62,8.33c6.39,6.17,13,9.19,19.85,9.08Z"/>
        <path class="cls-2" d="M1068.97,557.1l-13.67.59-1.5-35.2-21.65.93,1.15,26.97-13.43.57-1.15-26.97-35.68,1.52-.72-16.94,84.42-3.61,2.23,52.13Z"/>
        <path class="cls-2" d="M994.08,622.81l4.31-33.38-15.25-7.58,2.27-17.65,80.05,40.96-2.52,19.57-87.82,19.32,2.3-17.77,16.68-3.46ZM1008.12,619.98l36.62-7.61-33.49-16.65-3.13,24.26Z"/>
        <path class="cls-2" d="M1048.43,690.45l-81.55-22.13,4.44-16.36,81.55,22.13-4.44,16.36Z"/>
        <path class="cls-2" d="M946.95,722.48l37.56-4.64,3.05-7.38-30.43-12.59,6.48-15.66,78.09,32.31-12.13,29.31c-2.5,6.04-5.69,10.75-9.58,14.12-3.88,3.37-8.07,5.37-12.57,6-4.5.63-8.98.02-13.46-1.84-5.14-2.13-9.17-5.54-12.08-10.23-2.91-4.7-3.92-10.31-3.05-16.85l-39.39,5.58,7.5-18.12ZM999.31,715.32l-5.41,13.09c-1.76,4.25-2.05,7.85-.86,10.78,1.19,2.94,3.61,5.16,7.27,6.68,3.58,1.48,6.79,1.59,9.63.32,2.84-1.28,5.14-4.03,6.9-8.28l5.41-13.09-22.94-9.49Z"/>
        <path class="cls-2" d="M953.07,874.06l-69.57-47.96,9.62-13.95,45.25,31.19-32.4-49.83,7.28-10.57,58.17,12.45-45.25-31.19,9.62-13.95,69.58,47.96-10.92,15.85-66.99-13.53,36.48,57.79-10.86,15.75Z"/>
        <path class="cls-2" d="M865.11,850.12c7.39-1.71,14.73-1.43,22.02.84,7.29,2.26,13.73,6.47,19.33,12.62,5.54,6.09,9.08,12.88,10.64,20.35,1.56,7.47,1.14,14.81-1.26,22.01-2.4,7.2-6.53,13.46-12.38,18.78-5.91,5.38-12.55,8.9-19.92,10.58-7.36,1.68-14.68,1.37-21.94-.92-7.26-2.29-13.66-6.48-19.2-12.57-5.59-6.15-9.18-12.96-10.76-20.4-1.59-7.45-1.18-14.77,1.22-21.97,2.4-7.2,6.53-13.46,12.38-18.78,5.85-5.32,12.48-8.83,19.87-10.54ZM847.79,883.45c-1.32,4.3-1.35,8.78-.08,13.41,1.26,4.63,3.8,9.04,7.59,13.22,3.8,4.18,7.94,7.11,12.4,8.78,4.46,1.67,8.88,2.04,13.27,1.1,4.39-.93,8.46-3.11,12.23-6.53,3.75-3.42,6.33-7.29,7.7-11.59,1.38-4.3,1.45-8.76.21-13.36-1.24-4.6-3.76-8.99-7.56-13.18-3.8-4.17-7.94-7.11-12.43-8.82-4.49-1.7-8.95-2.09-13.4-1.15-4.44.93-8.55,3.1-12.31,6.53-3.76,3.42-6.3,7.28-7.62,11.59Z"/>
        <path class="cls-2" d="M834.81,975.98l-26.56-45.05c-2.92-4.94-6.42-7.95-10.53-9.04-4.11-1.09-8.49-.26-13.15,2.49-4.73,2.78-7.61,6.24-8.65,10.37-1.04,4.12-.1,8.65,2.81,13.59l26.56,45.05-14.71,8.68-26.5-44.95c-3.65-6.18-5.4-12.21-5.24-18.06.15-5.86,1.84-11.18,5.05-15.98,3.21-4.81,7.57-8.82,13.06-12.05,5.42-3.21,10.97-5.03,16.66-5.48,5.69-.45,11.08.71,16.17,3.47,5.09,2.76,9.47,7.23,13.11,13.42l26.5,44.95-14.6,8.61Z"/>
        <path class="cls-2" d="M668.2,958.48l16-5.59,55.34,42.11-19.1-54.75,16.01-5.59,27.88,79.9-16.01,5.58-55.38-42.22,19.15,54.87-16,5.58-27.88-79.9Z"/>
        <path class="cls-2" d="M611.6,1053.27l-2.13-13.51,22.24-3.5-11.03-69.96,16.74-2.64,11.03,69.96,22.24-3.5,2.13,13.51-61.23,9.65Z"/>
        <path class="cls-2" d="M282.16,910.42c-.34-4.93.89-9.46,3.72-13.59,2.55-3.74,5.71-6.39,9.48-7.97,3.77-1.58,7.93-1.98,12.49-1.21,4.55.77,9.2,2.77,13.93,6l30.08,20.57-47.69,69.76-28.78-19.68c-4.73-3.23-8.28-6.79-10.67-10.67-2.38-3.88-3.53-7.79-3.43-11.73.11-3.94,1.34-7.64,3.7-11.1,2.78-4.06,6.19-6.72,10.22-7.98,4.04-1.25,8.24-1.21,12.61.12-3.43-3.42-5.32-7.59-5.66-12.53ZM309.86,945.63l-12.79-8.74c-3.33-2.27-6.41-3.28-9.23-3.01-2.82.27-5.19,1.8-7.1,4.6-1.92,2.8-2.49,5.58-1.74,8.34.75,2.77,2.79,5.29,6.12,7.56l12.79,8.75,11.96-17.5ZM306.4,903.38c-2.99.3-5.49,1.92-7.49,4.85-2.05,3-2.66,6.03-1.81,9.1.84,3.07,2.95,5.76,6.35,8.08l13.79,9.43,12.85-18.79-14.1-9.63c-3.39-2.32-6.6-3.34-9.59-3.04Z"/>
        <path class="cls-2" d="M243.03,846.53l23.82,23.77,15.32-7.46,12.6,12.57-81.29,38.43-13.96-13.94,38.27-81.36,12.68,12.66-7.43,15.33ZM236.71,859.38l-16.32,33.66,33.62-16.39-17.3-17.27Z"/>
        <path class="cls-2" d="M208.98,776l-16.69,33.96,4.51,6.6,27.2-18.56,9.55,14-69.8,47.64-17.88-26.2c-3.68-5.4-5.87-10.65-6.57-15.75-.69-5.09-.07-9.7,1.86-13.8,1.94-4.11,4.91-7.52,8.91-10.25,4.6-3.14,9.66-4.64,15.18-4.5,5.52.14,10.78,2.37,15.77,6.68l16.9-36.01,11.06,16.2ZM186.29,823.73l-7.98-11.7c-2.59-3.8-5.44-6.01-8.55-6.62-3.11-.62-6.29.19-9.56,2.42-3.2,2.18-5.04,4.81-5.54,7.88-.49,3.07.56,6.51,3.15,10.31l7.98,11.7,20.5-13.99Z"/>
        <path class="cls-2" d="M135.37,710.69c2.28-4.38,5.7-7.6,10.26-9.65,4.13-1.86,8.21-2.47,12.24-1.85,4.04.62,7.8,2.45,11.29,5.48,3.48,3.03,6.4,7.16,8.75,12.4l14.92,33.24-77.09,34.61-14.28-31.81c-2.35-5.22-3.52-10.12-3.54-14.67,0-4.55,1.06-8.48,3.21-11.79,2.14-3.3,5.13-5.82,8.95-7.53,4.49-2.02,8.79-2.51,12.87-1.47,4.1,1.04,7.67,3.26,10.7,6.68-1.14-4.71-.58-9.25,1.7-13.64ZM140.62,755.18l-6.35-14.13c-1.65-3.68-3.75-6.15-6.3-7.39-2.55-1.24-5.37-1.17-8.46.22-3.09,1.39-5.04,3.46-5.84,6.21-.8,2.74-.38,5.96,1.28,9.64l6.35,14.13,19.33-8.68ZM159.73,717.34c-2.71-1.31-5.68-1.23-8.93.22-3.31,1.48-5.41,3.76-6.3,6.81-.89,3.06-.48,6.46,1.2,10.21l6.84,15.24,20.77-9.32-6.99-15.57c-1.69-3.75-3.89-6.28-6.59-7.59Z"/>
        <path class="cls-2" d="M90.98,683.5l20.47-5.46-7.34-27.49,12.98-3.47,7.34,27.49,21.64-5.77-8.27-31,13.33-3.56,12.64,47.37-81.76,21.83-12.64-47.38,13.33-3.56,8.27,31Z"/>
        <path class="cls-2" d="M144.16,578.92l-30.89,21.86.8,7.95,32.77-3.3,1.7,16.86-84.08,8.47-3.18-31.55c-.65-6.5-.07-12.16,1.76-16.97,1.83-4.81,4.58-8.55,8.24-11.23,3.66-2.69,7.9-4.27,12.72-4.75,5.54-.56,10.7.54,15.48,3.3,4.78,2.77,8.34,7.23,10.66,13.4l32.06-23.55,1.97,19.51ZM101.42,610l-1.42-14.1c-.46-4.57-1.91-7.88-4.34-9.9-2.43-2.02-5.62-2.84-9.55-2.44-3.86.39-6.73,1.82-8.63,4.28-1.9,2.46-2.62,5.98-2.16,10.55l1.42,14.1,24.69-2.49Z"/>
        <path class="cls-2" d="M141.15,535.03c-2.35,4.57-5.51,8.09-9.49,10.55-3.98,2.47-8.55,3.57-13.7,3.28l1.27-18.11c3.48,0,6.3-1.03,8.48-3.1,2.17-2.07,3.39-5.04,3.66-8.9.28-3.95-.45-7.11-2.19-9.5-1.73-2.39-4.13-3.69-7.19-3.9-2.49-.17-4.6.44-6.32,1.86-1.72,1.42-3.12,3.24-4.21,5.47-1.09,2.23-2.34,5.32-3.75,9.27-2,5.36-3.9,9.69-5.71,13-1.81,3.31-4.39,6.08-7.74,8.31-3.35,2.24-7.69,3.16-13,2.79-4.99-.36-9.25-1.91-12.78-4.67-3.53-2.76-6.12-6.46-7.77-11.11-1.66-4.65-2.28-9.87-1.87-15.67.61-8.69,3.22-15.61,7.84-20.74,4.61-5.14,10.72-7.72,18.33-7.75l-1.31,18.6c-2.91-.04-5.39,1.02-7.45,3.18-2.05,2.16-3.21,5.14-3.48,8.92-.23,3.3.43,6,1.98,8.09,1.55,2.09,3.94,3.25,7.16,3.48,2.26.16,4.18-.45,5.77-1.84,1.59-1.38,2.93-3.15,4.01-5.3,1.09-2.15,2.37-5.2,3.86-9.13,2-5.36,3.93-9.72,5.78-13.07,1.86-3.35,4.48-6.15,7.88-8.42,3.4-2.27,7.72-3.22,12.95-2.85,4.51.31,8.61,1.78,12.31,4.39s6.54,6.25,8.51,10.92c1.98,4.67,2.75,10.11,2.31,16.31-.41,5.88-1.79,11.09-4.14,15.66Z"/>
      </g>
      <circle class="cls-2" cx="989.27" cy="370.14" r="21.9"/>
      <circle class="cls-2" cx="469.67" cy="1003.68" r="21.9"/>
      <circle class="cls-2" cx="136.45" cy="356.57" r="21.9"/>
    </g>
  </g>
</svg>