<?xml version="1.0" encoding="UTF-8"?>
<svg id="Layer_1" data-name="Layer 1" xmlns="http://www.w3.org/2000/svg" viewBox="0 0 1582 1080">
  <defs>
    <style>
      .cls-1 {
        fill: #003221;
      }

      .cls-1, .cls-2 {
        stroke-width: 0px;
      }

      .cls-3 {
        stroke: #eeebde;
        stroke-miterlimit: 10;
      }

      .cls-3, .cls-2 {
        fill: #eeebde;
      }
    </style>
  </defs>
  <g>
    <path class="cls-1" d="M926.58,21.37c-2.48-5.15-4.28-10.68-7.59-15.66,4.55,4.98,10.53,7.18,17.3,9.94-1.06-3.1-3.18-3.71-4.74-4.89-3.52-2.64-7.86-4.07-10.9-7.46-1.48-1.65-3.41-1.17-5-.12-1.73,1.14-1.49,2.93-.76,4.55,1.63,3.63,3.49,7.15,4.93,10.85,11.16,28.57,5.59,55.02-13.02,79.67-7.61,10.09-17.59,17.47-27.82,24.48-1.18.81-2.42,1.93-4.7,1.12,5.59-4.38,10.93-8.41,16.12-12.64,17.03-13.88,28.2-31.72,32.16-53.12,2.61-14.11,1.13-28.33-5.69-41.16-1.86-3.5-3.98-6.85-5.14-10.74-1.05-3.56-.14-5.28,3.74-5.86,12.81-1.91,22.52,4.87,28.66,16.42,7.48,14.05,4.58,27.98.66,41.93-8.27,29.47-24.36,55.13-41.7,80.05-5.55,7.97-11.39,15.73-17.23,23.49-1.05,1.39-.68,2.54-.4,3.78,4.13,18.32,4.18,37.31,6.9,55.86,4.14,28.21,5.53,56.8,8.3,85.2,1.36,13.86,1.05,27.95,2.2,41.85,1.54,18.61,2.25,37.29,3.16,55.95,1.25,25.7,1.9,51.46,2.77,77.2.58,17.15.88,34.33.4,51.47-.42,14.77-.08,29.58-1.78,44.42-1.52,13.28-.31,26.61-.7,39.95-.55,18.7-1.04,37.4-2.48,56.08-3.08,39.97-6.4,79.94-10,119.88-3.6,39.83-11.02,79.25-17.17,118.81-4.05,26.07-10.56,51.57-18.06,76.86-4.26,14.37-9.85,28.5-17.43,41.41-9.53,16.23-21.58,30.78-36.79,42.1-7.43,5.53-15.76,8.18-24.95,6.46-2.07-.39-3.81-1.27-5.2-2.59-3.5-3.32-7.5-5.92-11.73-8.04-11.58-5.81-14.47-16.69-15.82-28.54-2.97-25.99,3.91-51.33,8-76.83,3.15-19.6,8.09-39.01,10.37-58.66,3.82-32.97,8.68-65.83,12.59-98.79,2.55-21.49,6.5-42.86,9.3-64.35,2.38-18.3,3.79-36.64,5.83-54.95,1.78-15.96,3.54-31.95,4.42-47.94,1.14-20.88,4.49-41.71,5.04-62.52.63-23.94,3.56-47.87,2.61-71.8-.25-6.19.21-12.48.83-18.7,1.1-10.98.23-21.89.02-32.78-.28-14.67-.52-29.35.27-44,1-18.54-.64-36.97.41-55.46,2.47-43.62-.49-86.91-1.6-130.33-.38-14.96.02-29.99-.79-44.92-.77-14.12-1.58-28.25-1.1-42.42.56-16.49-.09-33.03,3.38-49.46,2.6-12.3,14.24-20.3,26.51-19.79,10.06.42,15.65,5.75,20.9,13.21,8.85,12.59,14.21,26.78,18.26,41.6,1.21,4.42,2.61,8.02,7.25,9.69,3.82,1.37,6.34,5.66,11.59,5.28-3.58-3.72-8.09-5.17-11.44-8.44,4.68,1.53,8.42,5.09,13.59,5.88-3.13-1.96-6.26-3.93-9.39-5.89,5.73-.33,8.81,4.87,13.92,5.82-2.52-3.37-6.35-4.83-9.62-7.05-2.55-1.73-2.72-2.88.2-4.3-.73,1.16-.79,2.35.35,3.09,3.47,2.28,7.01,4.44,10.53,6.64-1.45-4.26-5.72-4.91-7.69-8.3,2.3.93,4.37,2.16,6.37,3.5,6.19,4.15,9.32,2.58,10.96-5.85-5.8,3.55-8.13-3.94-13.39-2.85,3.11,1.95,6.21,3.9,9.84,6.17-2.12.79-3.11-.95-4.32-.17.07,1.81,2.62,1.64,2.15,3.99-2.74-1.72-5.3-3.31-7.84-4.93-2.19-1.4-4.3-3.12-7.15-1.22,4.99-4.59,9.9-9.3,15.65-12.9-2.22,2.47.12,3.16,1.5,3.95,2.73,1.57,5.12,3.29,4.81,8.02,1.63-2.6,2.67-4.14,3.58-5.74.61-1.08.28-2.43-.95-1.89-4.87,2.11-6.08-2.89-9.1-4.28,2.75.19,4.37,2.77,7.32,3.4-.25-2.56-2.82-3.08-3.85-5.01.57.06.74.02.86.09,8.19,4.68,8.32,4.75,13.01-3.85,3.9-7.17,8.28-14.1,11.35-21.7.35-.86,1.27-1.68.21-3.13-2.42,3.04-5.18,2.16-7.96.16-.67,3.11,1.99,2.87,2.38,4.61-1.29.88-2.42-1.07-4.29-.39,1.49,1.38,2.78,2.58,4.2,3.9-2.3,1.68-2.44-3.05-4.54-1.01-.47.88.33,1.1.71,1.56.82.99,3.41.97,2.18,2.97-.44.72-1.08,3.19-3.25,2.07-1.73-.89-4.46-1.68-3.68-3.87,1.64-4.57,4.09-8.88,6.33-13.24.77-1.48,2.1.34,3.35-.48-3.77-2.48-2.3-6.11-.63-8.71,1.38-2.15,2.98,1.69,5.06,1.04.02-.05.26-.52.2-.56-8.55-6-.92-13.83-2.74-21.57,4.07,2.56,6.86,4.3,10.34,6.49-4.32.54-4.98-4.8-10.21-3.23,3.31,2.08,5.67,3.59,8.06,5.05,1.58.97,2.63,2.55,1.65,4.15-1.29,2.1-2.85.43-4.23-.32-1.26-.69-2.22-2-4.19-1.85.51,2.89,3.18,3.51,4.82,5.07.97.92,2.31,1.67.94,3.21-1.17,1.33-2.03.1-2.93-.52-1.13-.78-2.15-2.01-3.93-1.18.55,1.67,2.09,2.05,3.21,2.84,2.79,1.98,4.06,3.86-.45,5.28-1.55.49-1.08,1.15-.38,1.52,1.97,1.04,1.05,2.84,1.1,4.5,5.32-7.24,7.16-15.67,9.59-23.83,1.84-6.18,3-12.5,2.89-18.98-.05-3.09-.75-4.95-4.67-3.82,5.4,5.79.74,12.32.8,18.53.01,1.25-1.35,1.98-2.6.95-2.65-2.19-5.65-3.81-8.57-5.6-1.39-.85-1.72-2.84-1.68-4.51.07-2.49,2.75-.02,3.53-2.17-3.64-.35-3.67-3.29-4.02-6.11-.24-1.94.4-4.07-.86-5.81,3.14,2.47,6.17,5.13,10.43,5.42-3.26-2.14-4.83-7.61-10.4-5.24.18-1.84-.95-3.14-1.66-4.61,4.23,2.65,8.01,6.13,13.18,7.12-2.95-3.85-7.03-6.06-11.17-8.15-.78-.39-1.51.45-1.99,1.2ZM878.98,144.55c1.95-1.21,6.67-1.36.62-5.69,4.94,2.19,7.56,5.63,11.96,5.55-1.63-2.75-4.31-4.15-6.94-5.4-2.5-1.19-5.11-5.21-7.25-3.18-1.68,1.6.54,5.81,1.81,8.64,1.01,3.68,5.43,3.08,7.04,5.94-1.38.16-2.77-1.93-4.47-.01,1.2.88,2.28,1.96,3.58,2.56,1.86.85,3.72.11,4.71-1.62,1.18-2.06-.99-2.45-2.09-3.16-2.74-1.77-5.55-3.43-8.97-3.63ZM825.74,144.7c3.39-.23,3.71-2.24,3.2-5.06-.57-3.12-2.09-6.25-.41-9.51,1.17,3.32.55,7.13,3.75,11.2-.15-7.18.23-12.99-.94-18.69-.3-1.46-1.04-3.37-2.76-2.84-2.1.65-.17,2.17-.14,3.31.03,1.21,1.09,2.51-1,4.14-.46-3.77-.05-7.62-2.71-10.17-1.07.47-1.12,1.17-1.02,1.81.77,5.26,1.01,10.67,1.93,15.81.62,3.46-1.92,6.88.29,9.96-3.17,1.67-4.36,4.08-2.78,7.52-.27-2.89,8.21-2.72,2.6-7.48ZM849.12,644.72c3.13-7.43.97-15.4,3.06-22.95.16-.56-.52-1.73-1.1-2.01-1.29-.62-.86,1.61-1.89,2,.52-11.38.82-22.34,1.56-33.29,1.62-23.76.66-47.43.82-71.14.18-26.07,1.37-52.18,1.14-78.23-.13-15.04-.21-30.13-1.18-45.12-.25-3.89,1.67-7.67,1.06-11.03-2.4-13.15-1.95-26.47-2.1-39.78-.02-2.01,2.36-2.56,1.46-5.07-2.19-6.08-.36-12.97-2.3-19.3-.49-1.61-1.58-4.59,1.39-6.33.91-.54.59-2.09-.54-2.39-1.83-.5-1.32-1.95-1.59-3.18-2.35-10.83-1.54-22.11-3.25-33.06-.57-3.68-1.96-7.48-1.53-11.16,1.32-11.37-.12-22.68-1.74-33.5-2.36-15.69-4.45-31.42-6.3-47.19-.51-4.39-.32-4.42-5.51-5.31,4.13,11.57,3.35,23.61,4.19,35.44-2.06-5.29-1.37-11.19-3.49-16.67-1.04,13.24,3.04,25.51,2.97,38.51-.04,8.09,1.53,16.59,2.58,24.87.35,2.74-.77,5.52-.28,8,2,10,4.21,19.9,1.77,30.33-.26,1.13-1.11,3.75-.06,3.41,3.69-1.2,2.21,1.98,2.13,2.67-.72,6.57-.28,12.99,1.03,19.36.16.79.33,1.87-.06,2.46-2.95,4.43-1.74,9.25-1.63,13.83.73,30.46,2.24,60.89,2.45,91.37.26,38.7-.34,77.44-.81,116.17-.28,23.27-1.67,46.54-3.01,69.81-2.59,44.88-7.58,89.62-12.54,134.36-1.51,13.6-3.52,27.17-5.29,40.75-.14,1.08-.91,2.27.35,3.13.77.52,1.03-2.42,1.87-.43.45,1.06-.31,1.88-1.59,1.95-2.19.11-1.52,1.97-1.69,3.08-1.33,8.36-2.65,16.73-3.78,25.12-4.48,33.26-10.72,66.26-17.51,99.17-1.05,5.1,1.16,10.63-2.99,15.4-1.96,2.26,1.62,4.44.99,7.09-1.22,5.08-2.24,10.21-3.35,15.31-3.45,15.81-9.17,31.08-12.32,46.96-.34,1.74-1.03,3.49.7,5.5,2.88-10.11,5.75-20.21,8.63-30.32.15.04.3.09.46.13-.84,4.19-1.67,8.38-2.51,12.57,0-1.71,6.39.73,2.57-3.6-.74-.84,1.09-4.04,1.79-6.33.83,1.5-.99,3.19.98,4.59.95-3.23,3.49-7.39,2.42-9.11-2.3-3.67-.65-7.58.81-8.85,4.27-3.73,3.6-8.91,4.94-13.11,4.02-12.56,7.06-25.52,8.27-38.64,1.15-12.44,5.5-24.23,7.15-36.65,2.1-15.76,6.16-31.42,8.78-47.19,3.71-22.28,6.39-44.71,9.94-67.01,3.56-22.35,4.98-44.86,7.92-67.26,2.16-16.44,3.6-32.97,6-49.41.44-3,1.26-6.02-.23-8.88v.19ZM765.21,996.53c1,.93-.47,2.69,1.4,3.72,1.44-7.2,4.07-13.98,3.93-21.25,1.61-2.55,2.12-5.5,2.1-8.26,0-1.01-2.25-1.65-1.73-4.08,1.59-7.49,3.31-14.96,4.5-22.55.84-5.38.95-10.96,4.71-16.09,2.62-3.57,1.78-9.16,2.73-13.78,5.28-25.62,8.19-51.51,11.89-77.3.14-1,.3-2.84-.39-2.64-3.56,1.04-1.49-1.93-1.22-2.05,3.4-1.4,2.45-4.62,3.28-7.07,1.35-3.99-.53-8.14.64-11.93,1.55-4.98,2.4-9.71.79-14.65-.49-1.5-1.17-3.31,1.57-3.73,1.34-.21,1.04-1.52,1.16-2.47,1.27-9.54,2.73-19.07,3.76-28.64,1.84-17.13,4.16-34.21,5.49-51.39,1.33-17.13,3.68-34.22,5.53-51.34.31-2.85,1.57-7.34.33-8.27-3.63-2.7-.37-5.04-.44-7.43-.03-1-.15-1.99-.21-2.99-.23-3.82-1.22-7.48,2.1-11.11,1.75-1.91,1.26-5.37,1.1-8.33-1.77.61-1.93,2.53-1.93,2.36.11-6.74.98-13.5.75-20.19-.21-6.04,3.44-11.82,1.39-17.87-.09-.28.31-.89.63-1.17,3.42-2.89,2.55-6.56,1-9.33-2.92-5.2,1.79-10.62-.52-15.63-.05-.1.08-.42.15-.43,3.84-.68,2.62-4.26,2.52-5.91-.33-5.41.45-10.76.5-16.13.06-5.56.12-11.12.5-16.68.31-4.51-2.67-8.97.34-13.53.29-.45-.2-1.34-.08-1.98,1.69-9.05-1.93-17.5-1.9-26.34.06-16.56.25-33.12.65-49.68.1-3.96.83-8.16.64-11.92-.54-10.61,0-21.25-.38-31.84-.03-.83-.77-2.2.6-2.57,2.29-.62,1.56-2.17.74-2.87-2.01-1.7-1.43-3.91-1.47-6.04-.2-10.69.67-21.41-.03-32.08-.35-5.35-.63-10.72-.57-16.1.39-32.65-3.52-65.03-2.06-97.73.23-5.12-1.96-9.56-1.98-14.6-.05-13.97-.35-27.93-1.03-41.85-.24-4.81,1.4-10.27-1.35-14.35-2.72-4.04-.56-9.64-4.41-13.04-.29-.26-.18-1.63.17-1.9,4.31-3.31-1.58-7.56,1.43-10.92-3.14-5.57-1.37-11.74-1.37-17.68,0-1.18.39-2.87-.96-2.99-4.92-.42-.02-3.73-1.41-5.1,4.41-1.43,2.59-5.23,3.21-8.09.46-2.14.81-4.31,1.2-6.45,1.07-5.86,4.3-10.7,7.01-15.84-5.86,3.78-6.92,10.39-9.82,16.06-.4-3.15,1.32-5.78,1.62-8.67-2.31,3.46-3.65,7.2-4.14,11.29-3.07,25.47-2.79,50.93-2.09,76.34,1.01,36.83,2.65,73.62,3.96,110.43.91,25.56,1.14,51.17,1.43,76.77.59,52.06-.04,104.15-1.21,156.25-.47,21.07-1.24,42.17-2.38,63.25-2.61,48.28-7.22,96.48-12.46,144.63-5.15,47.32-11.53,94.52-18.15,141.7-5.3,37.78-11.88,75.38-19.26,112.87-3.5,17.76-8.42,35.5-7.16,53.66.59,8.55-.38,18.28,8.96,24.79-.24-3.73-1.18-6.23-1.47-8.83-.89-7.89,2.51-15.67,1.19-23.54-.05-.31,1-.75,1.33-1.26,3.12-4.76,5.23-9.81,4.7-15.59-1.2-.22-1.24,1.05-1.93,1.42-.04-.69-.21-1.4-.08-2.06.59-3.15,1.27-6.29,1.92-9.43ZM808.32,1015.12c3.76-5.81,2.41-13.1-3.09-16.69-6.48-4.24-13.97-2.75-17.93,3.55-3.94,6.28-2.5,14.54,3.21,18.42,5.29,3.59,13.69,1.1,17.81-5.28ZM849.98,169.5c4.39-6.98,2.92-12.85-4.32-17.29-4.41-2.71-11.61-.22-15.13,5.22-3.44,5.32-2.17,13.19,2.61,16.22,6.09,3.86,12.85,2.19,16.84-4.16ZM829.99,1040.81c-5.96,6.1-14.34,9.88-17.55,18.68-.38,1.03-1.44,1.24-2.5,1.37-5.13.6-9.93,1.73-11.34,8.02-.23,1.03-.9,1.73-2.07,1.96-1.22.25-3.49-.35-2.5,2.35.99,2.68,2.53,1.06,3.88.24,13.38-8.1,24.07-18.98,32.07-32.63ZM769.51,1037.93c-1.52,2.41-1.66,4.91-1.81,7.46-.41,6.88,6.01,10.78,6.63,17.2.02.19.68.51.76.44,2.99-2.72,6.41-.04,9.53-1.2,1.31-.49,2.82-.94,2.63-2.54-.21-1.72-1.83-.85-2.85-.79-3.16.17-6.04-.41-7.55-3.44-2.36-4.73-3.66-9.76-2.94-15.29.18-1.41,1.94-3.49-.58-4.29-1.98-.63-2.72,1.51-3.82,2.44ZM785.32,1025.81c.43-1.35.75-2.49,1.14-3.6.85-2.38-.44-4.44-2.07-4.88-1.86-.5-1.91,2.06-2.68,3.46-.88,1.6.03,5.52-3.97,4.07,1.32,3.09-.84,5.02-2.54,7.09.27.17.57.52.82.48,3.74-.64,2.36,1.9,1.93,3.56-.6,2.27-1.28,4.56-2.3,6.67-.92,1.9-.14,3.77.93,4.14,2.21.75,1.94-1.75,2.21-2.96.51-2.33.93-4.44,2.92-6.22,1.53-1.36,2.08-3.88,1.71-5.65-.59-2.73-.8-4.85,1.92-6.16ZM826.81,170.28c-.29-3.32-1.08-6.54-.32-9.81.91-3.96,3.02-7.14,6.34-9.49,2.01-1.42.62-3.74,1.58-5.45.03-.05-.72-.78-1.01-.71-1.91.45-1.61,2.26-2.17,3.59-.37.87-1.12,1.63-1.82,2.32-4.44,4.42-5.69,9.83-5.23,15.73.12,1.56.07,3.5,2.64,3.82ZM849.5,150.06c2.49,5.46,4.69,9.56,4.33,14.42-.37,5.08-4.25,8.51-6.91,13.26,10.07-6.22,11.82-20.89,2.58-27.68ZM944.65,28.15c-5.05-5.78-11.77-9.01-18.42-12.36,5.22,5.52,11.73,9.08,18.42,12.36ZM769.55,1061.09c-3.63-1.64-4.47,3.26-7.33,3.27.32,1.23-.25,2.92,1.11,3.6,2.4,1.19,4.43.13,6-1.89,1.26-1.62,1.43-3.38.22-4.98ZM893.73,146.63c6.08-5.72,6.55-8.72,1.87-10.94,2.64,7.04-2.16,4.68-6.38,3.84,2.03,3,5.11,3.69,4.5,7.1ZM827.5,107.88c.27-4.76.37-9.52-2.4-13.62.35,4.63-.41,9.47,2.4,13.62ZM815.95,114.35c.55-5.06,2.07-10.05.71-15.36-1.94,7.97-2.03,9.28-.71,15.36ZM886.69,138.24c.28-.36.56-.71.84-1.07-3.07-1.92-6.12-3.87-9.21-5.76-.62-.38-1.46-1.1-2.1-.14-.85,1.27.33,1.73,1.14,2.15,3.09,1.64,6.22,3.22,9.33,4.82ZM853.47,399.49c2.78-3.78,1.25-6.67.81-9.54-1.86,2.81-1.56,5.67-.81,9.54ZM944.31,24.03c-1.65-3.11-4.39-4.5-8.48-5.92,2.3,4.07,5.19,5.3,8.48,5.92Z"/>
    <path class="cls-1" d="M801.27,176.42c-2.21-1.27-3.47.67-4.67,1.86-16.38,16.27-32.94,32.4-47.55,50.38-9.46,11.64-18.48,23.67-27.36,35.77-27.47,37.4-51.23,77.24-75.39,116.78-17.46,28.59-33.77,57.88-50.54,86.89-16.53,28.59-33.27,57.07-51.82,84.38-16.99,25.02-32.72,50.89-50.58,75.3-15.01,20.51-29.36,41.51-45.15,61.47-13.34,16.86-25.66,34.54-38.65,51.69-7.92,10.45-16.22,20.6-24.4,30.85-1.14,1.43-2.69,2.57-2.56,4.72,8.65-4.51,109.28-140.03,144.21-191.62,44.98-66.44,83.36-136.79,124.71-205.42-.42,3.57-2.69,6.27-4.5,9.13-1.67,2.65-2.09,5.25-.02,7.4,2.26,2.35,5.34,3.17,8.67,2.42,1.29-.29,1.93-1.55,2.1-2.69.34-2.31-1.51-3.07-3.1-3.87-.94-.47-2.02-1.02-1.32-2.16,1.01-1.65,2.03-.4,2.75.39,1.86,2.06,4.15,5.4,6.67,3.12,1.9-1.72-1.37-4.52-2.6-6.73-.22-.39-.38-.81-.63-1.36,8.11,3.28,7.94,3.42,6.93,11.02-.29,2.19-.38,2.4-2.24,1.98-2.45-.56-4.66.73-5.19,2.93-.61,2.53,1.76,3.49,3.82,4.23,3.38,1.22,6.15,2.29,8.67-2.47,2.28-4.3,3.07.9,4.8,1.32-2.11.64-4.57.31-5.38,2.94-.62,2.04.92,3.17,2.37,3.87,2.05.98,6.24,1.91,6.29.85.18-3.6,3.84-4.44,4.37-6.86.55-2.53-2.41-4.08-3.65-6.19-.38-.64-1.54-.62-1.38-2.3,2.32,1.46,4.45,2.66,6.43,4.08,1.85,1.32,3.81,2.55,2.01,5.66-1.23,2.13.57,4.1,1.28,6.05-.34.18-.68.49-.86.42-2.28-.89-4.77-1.44-6.16,1.21-1.37,2.61,2.62,1.92,2.8,3.8.22,2.24,5.06,1.07,3.37,3.51-1.46,2.1-3.7-.8-5.27-1.87-11.1-7.55-22.48-14.6-34.56-20.48-.98-.48-1.8-1.39-3.48-1.03,4.64,6.07,12.98,6.71,16.87,12.62-6.92-2.48-13.24-7.74-21.65-7.73,4.33,2.74,8.77,5.17,12.92,8.08,2.89,2.02,6.48,3.04,7.98,6.82.36.92,1.67,1.62,2.7,2.01,16.25,6.25,27.56,18.33,37.31,32.28.14.2.58.18,1.9.53-7.02-16.7-20.17-26.58-32.49-37.71,1.74,1.09,3.5,2.15,5.21,3.28,1.77,1.18,3.49,2.44,5.24,3.66,10.94,7.6,9.43,8.12,16.72-3.06,9.53-14.61,18.7-29.46,28.44-43.92,20.82-30.91,40.87-62.35,62.77-92.52,4.4-6.06,9.13-11.88,13.89-17.69-6.35,11.82-13.79,23.15-22.28,33.29-13.03,15.56-23.06,32.95-34.02,49.79-4.48,6.88-8.76,13.88-13.29,20.72-12.72,19.25-25.5,38.47-38.32,57.65-1.81,2.71-1.55,4.24.57,6.88,4.04,5.05,5.88,11.55,8.48,17.55,6.76,15.58,1.62,29.83-5.39,44.18-21.08,43.13-47.17,83.26-73.73,123.11-14.32,21.49-28.53,43.05-43.08,64.39-15.02,22.04-30.2,43.98-45.66,65.71-16.55,23.25-33.53,46.18-50.29,69.27-7.13,9.82-14.12,19.74-21.3,29.52-4.53,6.17-4.64,5.94-10.47,1.7-9.53-6.93-19.15-13.74-28.9-20.34-10.03-6.79-19.24-14.75-29.77-20.8-1.98-1.14-3.9-3.02-6.01-3.19-8.77-.71-11.52-8.39-16.36-13.68-1.75-1.91-.64-3.58.36-5.48,3.94-7.52,9.93-13.42,15.2-19.88,12.41-15.2,24.45-30.68,36.04-46.52,17.25-23.56,34.7-46.97,51.89-70.57,8.65-11.88,16.88-24.06,25.38-36.05,6.43-9.05,12.79-18.17,19.55-26.97,7.52-9.78,13.51-20.55,20.43-30.71,19.55-28.71,36.93-58.75,54.01-88.92,23.34-41.21,47.44-81.95,72.08-122.4,8.35-13.71,17.75-26.7,26.19-40.33,7.73-12.48,16.14-24.51,24.74-36.38,13.52-18.67,27.79-36.76,42.95-54.12,11.45-13.11,24.29-24.77,36.73-36.84.84-.82,1.61-2.76,3.15-1.78,1.07.68.66,2.09-.11,3.17l.18-.03ZM656.69,440.5c-26.37,35.4-51.13,71.94-76.26,108.22.4.3.81.6,1.21.9,6.91-9.84,13.81-19.68,20.72-29.52-30.18,45.7-61.64,90.47-94.31,134.42,3.26-5.19,6.51-10.37,9.77-15.56-.26-.17-.53-.34-.79-.51-18.91,26.65-37.82,53.3-56.73,79.95.39.28.78.56,1.16.85,14.32-19.92,28.65-39.84,42.97-59.75-23.46,36.2-50.33,70.05-73.05,106.76,5.33-4.2,8.31-10.22,12.31-15.46-11.38,19.81-26.3,37.28-37.9,57.01-3.41-1.69-2.43-4.77-.66-8.63-3.75,3.8-3.82,3.86-6.59.76-6.17-6.92-13.1-13.16-17.5-21.61-3.39,2.85-4.21,7.17-7.82,9.48,1.21.76,2.56,1.12,3.06,2,3.87,6.88,10,10.55,16.7,14.39,14.39,8.24,28.02,17.82,41.85,27.02,5.04,3.35,9.65,7.33,14.65,10.75,9.4,6.43,9.46,6.34,16.37-3.05.3-.41.63-.81.93-1.22,14.91-20.39,30.48-40.33,44.56-61.27,18.2-27.07,37.86-53.07,56.07-80.13,8.55-12.7,17.25-25.33,26.09-37.85,21.79-30.85,42.63-62.37,62.49-94.55,16.61-26.91,32.75-54,45-83.23,3.68-8.79,3.03-16.53-2.54-23.57-13.27-16.77-30.27-29.01-48.46-39.59-3.73-2.17-7.74-5.27-13.49-4.49,3.54,4.37,8.37,5.02,12.22,7.32,2.5,1.49,4.87,2.82,1.6,7.65,3.83-3.43,6.96-.98,7.37-.19,2.14,4.12-2.61,6.97-3.44,11.28,2.89-2.33,3.64-5.97,7.51-8.37-1.31,2.74-2.09,4.37-2.91,6.09,2.32.19,2.05-3.27,4.74-2.7-15.41,21.89-30.68,43.57-45.94,65.25,12.12-20.21,26.91-38.6,39.02-58.83ZM465.04,702.47c-2.9,11.89-12.59,19.75-18.08,29.89.37.22.73.44,1.1.66,13.74-19.28,27.48-38.56,41.23-57.85-9.52,9.18-15.73,21.03-25.13,30.41.3-1.04.59-2.07.89-3.11ZM563.96,575.51c-.53-.38-1.06-.76-1.59-1.13-13.86,20.74-28.73,40.77-43.23,61.06.42.3.84.6,1.26.89,14.52-20.27,29.04-40.55,43.56-60.82ZM651.86,442.81c-15.56,20.45-30.94,40.98-44.65,62.67.35.24.7.48,1.05.72,14.53-21.13,29.07-42.26,43.6-63.39ZM580.01,544.1c.39.23.78.46,1.17.68,8.29-11.81,16.59-23.62,24.88-35.43-.39-.28-.79-.55-1.18-.83-8.29,11.86-16.58,23.72-24.87,35.58ZM405.74,803.75c8.45-8.71,13.45-19.78,20.46-29.49-7.46,9.39-15.1,18.66-20.46,29.49ZM550.91,585.54c.46.36.93.72,1.39,1.08,7.82-11.29,15.64-22.58,23.46-33.87-10.06,9.69-16.01,22.25-24.85,32.78ZM411.69,783.09c.42.26.85.53,1.27.79,7.43-10.78,14.86-21.55,22.29-32.33-.38-.26-.75-.52-1.13-.78-7.48,10.77-14.96,21.54-22.44,32.32ZM520.78,628.24c.34.24.67.48,1.01.72,7.56-10.12,15.12-20.24,21.08-31.48-7.36,10.25-14.73,20.51-22.09,30.76ZM444.48,742.84c-4.15,3.64-19.8,26.37-20.79,30.79,7.26-10.82,14.83-19.66,20.79-30.79ZM406.57,797.34c6.43-6.63,10.55-14.78,15.17-22.59-5.09,7.52-11.45,14.16-15.17,22.59ZM491.86,665.06c-7.55,8.58-13.2,18.54-19.83,27.79,7.06-8.93,14.63-17.51,19.83-27.79ZM445.42,740c.41.29.82.59,1.23.88,3.93-6.27,7.87-12.54,11.8-18.8-4.94,5.54-9.69,11.24-13.04,17.92ZM519.69,632.03c-.32-.31-.65-.61-.97-.92-4.53,6.4-9.05,12.8-13.58,19.2.4.29.8.58,1.2.88,4.45-6.39,8.9-12.77,13.35-19.16ZM492.05,668.71c.38.23.76.46,1.13.7,4.03-4.32,6.67-9.64,9.23-15.03-3.46,4.78-6.91,9.55-10.37,14.33ZM565.5,571.21c3.95-2.76,6.7-6.39,8.72-12.36-4.93,3.89-6.17,8.59-8.72,12.36ZM436.27,748.88c4.98-4.56,8.4-9.86,8.31-13.25-2.83,4.51-5.36,8.54-8.31,13.25ZM628.13,471.86c-.41-.23-.81-.47-1.22-.7-2.75,3.63-5.39,7.32-6.51,11.93,2.58-3.74,5.16-7.48,7.73-11.23Z"/>
    <path class="cls-1" d="M801.09,176.45c1.62,7.54.98,15.31,1.22,22.97.57,18.16.77,36.35,1.14,54.52.05,2.62-.78,4.6-2.48,6.86-11.4,15.16-22.5,30.54-33.25,46.19-20.61,30.03-40.81,60.31-60.53,90.94-.74,1.16-1.12,2.99-3.4,2.76.2-2.35,1.73-4.03,2.85-5.78,13.46-21.03,27.06-41.97,40.48-63.03,12.54-19.67,26.32-38.48,39.46-57.74,1.91-2.8,4.38-5.21,6.62-7.78,1.02-1.17,2.31-2.4,1.71-3.99-.44-1.18,1.63-2.81-.48-3.43-1.35-.4-2.59.36-3.68,1.23-5.96,4.77-11.22,10.24-15.49,16.61-1.2,1.79-4.09,3.09-4.54,3.09-4.92.02-4.18,5.96-4.06,6.17,2.79,4.61-3.49,4.82-3.66,7.77-3.18-.18-5.24,2.93-5.62,4.57-1.56,6.63-7.75,9.26-10.89,14.37-.17.28-.74.46-.73.67.15,5.79-5.75,8.97-6.4,14.5-.39,3.37-4.26,4.52-5.65,7.4-.19.39-1.1.5-1.2.87-1.82,6.53-7.98,11.11-8.41,18.29-.13,2.18-.79,4.19-3.48,4.98-1.08.31-2.08,1.73-2.73,2.87-5.32,9.18-11.66,17.66-17.68,26.36-1.73,2.49-2.35,5.39-1.63,8.92-3.58-.82-5.9-2.94-8.37-4.63-7.16-4.9-15.28-8.26-22-13.84-2.65-2.2-3.8-4.29.29-6.42.42-.22.78-.67,1.07-1.08,7.27-10.13,15.31-19.83,21.49-30.59,3.58-6.23,8.4-11.47,11.7-17.65,4.35-8.15,10.41-15.1,14.71-23.35,3.83-7.36,10.27-13.36,15.24-20.19,4.69-6.46,8.98-13.36,14.75-18.77,4.35-4.08,6.87-9.96,12.46-12.71,1.83-.9,1.11-3.44,2.15-4.34,4.61-3.99,6.1-10.35,10.59-14.18,3.17-2.71,4.98-5.85,5.83-9.65.63-2.81,2.36-4.49,4.64-5.67,6.48-3.33,11.22-8.96,12.42-15.54.94-5.13,3.96-10.69,2.9-15.04-1.06-4.36,2.25-5.01,2.83-7.52,0,0-.18.03-.18.03Z"/>
    <path class="cls-1" d="M742.37,243.57c-5.74,7.58-11.29,15.32-17.26,22.71-7.28,9.01-12.34,19.59-20.2,28.2-3.91,4.28-5.39,10.13-8.72,14.96-8.39,12.19-16.17,24.81-24.02,37.37-4.89,7.82-9.45,15.83-14.16,23.76-.35.59-.7,1.16-2.29.98,2.76-5.01,5.25-9.88,8.05-14.56,12.1-20.21,25.46-39.6,38.39-59.28,11.81-17.97,24.36-35.39,37.4-52.47.76-.99,1.39-1.97,2.8-1.62v-.05Z"/>
    <path class="cls-1" d="M700.64,404.96c-3.62-1.21-6.93-2.8-10.05-4.93-11.6-7.92-23.68-15.05-36.02-21.75-1.09-.59-2.19-.85-1.43-2.45,1.08-2.26,2.43-1.1,3.61-.34,9.5,6.09,18.98,12.2,28.46,18.32,5.34,3.45,10.86,6.63,15.43,11.15Z"/>
    <path class="cls-1" d="M915.98,102.27c.65.66,2.61,1.46,1.18,2.22-2.27,1.22.58,5.37-3.25,5-1.97-.19-2.69-2.12-3.91-3.35,2.63,1.74-.26-5.07,3.18-2.2.43.36,1.74,1,1.29-.73-.66-2.49.56-1.42,1.51-.94Z"/>
    <path class="cls-1" d="M922.99,96.54c-2.29.2-3.34-2.33-5.35-1.32-.81.41-1.56.9-1.95-.18-.17-.47.17-1.26.48-1.79.46-.79,1.2-1.13,2.1-.74,1.89.83,3.58,1.89,4.72,4.02Z"/>
    <path class="cls-1" d="M742.36,243.62c1.68-5.59,6.43-8.97,9.53-13.55-2.03,5.3-6.46,8.87-9.52,13.46,0,.03,0,.08,0,.08Z"/>
    <path class="cls-1" d="M849.11,644.53c-2.04,2.89-1.47,6.41-2.58,9.56-.24-5.45,1.62-10.75,1.74-16.23,1.36,2.08.62,4.56.84,6.86,0,.01,0-.18,0-.18Z"/>
    <path class="cls-1" d="M796.64,1001.04c4.54-1.98,6.29.98,7.84,3.38,2.02,3.14,2,6.7-.61,9.83-3.72,4.47-11.55,3.25-13.52-2-.29-.76-.85-1.61,0-2.23.73-.53,1.82-.29,2.1.53,1.24,3.61,3.41,5.74,7.35,4.2,2.72-1.06,4.01-3.6,4.11-6.49.16-4.59-3.21-5.95-7.29-7.23Z"/>
    <path class="cls-1" d="M844.29,156.36c3.67,2.33,4.79,7.37,2.44,10.99-2.66,4.09-7.36,5.52-10.81,3.31-3.15-2.02-4.02-7.97-1.73-11.83,1.98-3.34,6.84-4.52,10.1-2.46ZM845.75,166.47c1.76-3.23,1.49-6.31-1.65-8.18-2.82-1.68-5.69-1.27-8.04,1.84-3.11,4.1-.1,6.37,2.3,8.21,2.51,1.93,5.26.92,7.38-1.87Z"/>
    <path class="cls-1" d="M483.1,791.58c-3.07,6.76-7.27,11.5-10.67,16.94,1.9.47,2.05-1.1,3.8-1.41-3.29,5.39-6.34,10.19-10.69,15.34.6-4.15,3.28-5.74,4.77-8.09.98-1.54,1.05-1.51-.25-3.74-.58-.99.34-1.51.7-2.15,3.28-5.74,7.19-11.02,12.34-16.89Z"/>
    <path class="cls-1" d="M644.62,465.84c5.17-10.57,13.22-19.21,19.51-29.06-5.48,10.36-13.11,19.27-19.51,29.06Z"/>
    <path class="cls-1" d="M479.88,700.26c-6.02,8.4-12.03,16.8-18.05,25.19,4.22-8.76,11.14-15.72,15.95-24.08.46-.8,1.18-1.18,2.09-1v-.11Z"/>
    <path class="cls-1" d="M433.33,770.65c-3.98,7.09-7.4,14.33-13.69,19.56,4.56-6.52,9.12-13.04,13.69-19.56Z"/>
    <path class="cls-1" d="M524.68,707.73c-4.81,6.82-9.61,13.64-14.42,20.46,3.4-7.74,9.09-13.85,14.42-20.46Z"/>
    <path class="cls-1" d="M479.88,700.37c3.7-8.5,10.57-14.83,15.35-22.59-4.05,8.21-10.13,15.02-15.35,22.46,0,.02,0,.13,0,.13Z"/>
    <path class="cls-1" d="M613.72,570.59c3.17-7.25,8.64-12.91,13.13-19.24-3.12,7.28-8.81,12.79-13.13,19.24Z"/>
    <path class="cls-1" d="M476.33,816.39c-3.27,7.45-8.27,13.78-12.82,20.42,4.27-6.81,8.55-13.62,12.82-20.42Z"/>
    <path class="cls-1" d="M538.22,622.44c-4.24,7.2-10.08,13.41-14.22,20.8,3.52-7.73,9.49-13.78,14.22-20.8Z"/>
    <path class="cls-1" d="M642.36,472.82c4.05-6.16,8.78-11.95,12.72-18.29-3.31,6.7-7.47,12.82-12.72,18.29Z"/>
    <path class="cls-1" d="M661.95,466.19c2.8-6.95,8.54-11.77,12.2-18.07-2.72,6.97-8.78,11.64-12.2,18.07Z"/>
    <path class="cls-1" d="M498.54,699.07c-4.32,7.34-9.91,12.23-13.23,18.74,3.7-6.26,6.96-12.82,13.23-18.74Z"/>
    <path class="cls-1" d="M620.6,556.12c2.98-6.31,6.75-12.06,11.74-16.94-3.22,6.14-8.41,10.88-11.74,16.94Z"/>
    <path class="cls-1" d="M531.46,627.83c2.97-6.2,6.97-11.66,11.52-16.6-2.78,6.2-8.74,10.27-11.52,16.6Z"/>
    <path class="cls-1" d="M696.03,463.39c-1.82,4.41-5.07,7.78-8.2,11.23,2.16-4.15,4.24-8.36,8.2-11.23Z"/>
    <path class="cls-1" d="M446.72,793.28c2.99-4.76,5.98-9.52,8.97-14.28.17.11.34.21.52.32-2.99,4.76-5.98,9.52-8.97,14.28-.17-.11-.34-.21-.52-.32Z"/>
    <path class="cls-1" d="M449.04,799.97c-2.98,4.74-5.95,9.49-8.93,14.23-.12-.07-.24-.14-.36-.22,2.94-4.68,5.87-9.36,8.81-14.04.16,0,.32.02.48.03Z"/>
    <path class="cls-1" d="M682.95,497.19c-2.68,3.75-5.35,7.51-8.03,11.26-.07-.05-.15-.1-.22-.15,2.44-3.89,4.88-7.77,7.32-11.66.31.18.62.36.93.54Z"/>
    <path class="cls-1" d="M455.47,841.54c3.04-4.12,5.81-8.44,8.81-12.58-2.73,4.35-4.62,9.32-8.81,12.58Z"/>
  </g>
  <g>
    <path class="cls-2" d="M151.4,462.71v84.41c0,18.04,4.77,20.74,11.82,26.76h-57.87c8.5-5.19,12.44-10.58,12.44-26.76v-34.22H46.04v34.22c0,17.21,4.77,21.78,12.44,26.76H0c8.71-5.19,12.44-10.78,12.44-26.76v-84.62c0-16.18-3.94-21.78-12.44-26.96h58.49c-6.22,4.56-12.44,9.75-12.44,27.17v24.68h71.76v-24.68c0-15.97-3.94-22.61-13.07-27.17h59.32c-8.3,4.98-12.65,10.58-12.65,27.17Z"/>
    <path class="cls-2" d="M268.38,576.99c-49.57,0-81.09-26.13-81.09-71.35,0-42.31,30.7-73.21,84-73.21,48.32,0,79.64,26.76,79.64,70.93s-33.81,73.63-82.55,73.63ZM270.66,457.12c-28.62,0-46.87,18.46-46.87,49.15,0,18.04,6.01,31.32,17.63,39.2,8.3,5.6,16.8,6.85,27.38,6.85,27.58,0,45.63-17.63,45.63-49.36,0-29.66-18.04-45.84-43.76-45.84Z"/>
    <path class="cls-2" d="M501.5,563.1c-.42,1.45-1.45,4.15-1.45,6.01,0,1.66,1.87,3.73,2.9,4.77h-129c9.13-4.56,13.07-11.2,13.07-26.76v-84.62c0-16.38-4.15-21.78-12.44-26.96h59.32c-9.13,4.15-13.27,10.99-13.27,26.96v87.73h45.21c17.01,0,32.15-3.94,43.97-12.24l-8.3,25.1Z"/>
    <path class="cls-2" d="M650.83,563.1c-.42,1.45-1.45,4.15-1.45,6.01,0,1.66,1.87,3.73,2.9,4.77h-129c9.13-4.56,13.07-11.2,13.07-26.76v-84.62c0-16.38-4.15-21.78-12.44-26.96h59.32c-9.13,4.15-13.27,10.99-13.27,26.96v87.73h45.21c17.01,0,32.15-3.94,43.97-12.24l-8.3,25.1Z"/>
    <path class="cls-2" d="M780.24,454.42l-53.93,74.04v18.67c0,16.39,4.36,21.57,12.65,26.76h-58.9c8.3-5.19,12.65-10.37,12.65-26.76v-18.67l-51.02-71.76c-6.85-9.54-12.24-15.76-21.36-21.16h60.77c-3.94,1.66-5.6,4.77-5.6,8.09s1.87,7.67,4.56,11.61l31.11,46.04,31.32-46.04c2.28-3.53,4.77-7.05,4.77-10.99,0-4.56-2.28-7.05-5.81-8.71h55.38c-7.88,6.01-11.82,12.24-16.59,18.87Z"/>
    <path class="cls-2" d="M1017.72,475.57l-22.61,88.56c-.21,1.04-.62,3.53-.62,4.77,0,2.07,1.45,3.94,2.49,4.98h-56c2.49-1.87,2.7-2.9,2.7-4.77v-1.04c0-.42-.42-3.11-.62-3.94l-22.61-99.76-25.51,97.06c-.41,1.87-1.45,4.56-1.45,7.88,0,1.66,1.66,3.53,2.49,4.56h-55.17c1.45-1.24,3.11-2.7,3.11-5.39,0-2.07-.83-4.77-1.24-6.22l-21.98-88.56c-4.36-17.21-9.75-30.07-16.8-38.16h51.64c-3.94,2.9-6.43,5.6-6.43,12.65,0,3.11.62,8.92,1.45,12.44l19.5,87.73,27.17-103.29c.21-1.04,1.04-2.9,1.04-5.6,0-1.45-1.66-3.32-2.28-3.94h51.44c-1.04.62-2.49,1.87-2.49,3.73,0,2.49.62,4.56.83,5.81l23.85,105.78,20.33-90.22c.83-3.73,1.66-8.5,1.66-10.99,0-7.88-1.87-10.78-7.67-14.1h49.36c-6.22,10.78-11.62,24.89-15.55,40.03Z"/>
    <path class="cls-2" d="M1130.96,576.99c-49.57,0-81.09-26.13-81.09-71.35,0-42.31,30.7-73.21,84-73.21,48.32,0,79.64,26.76,79.64,70.93s-33.81,73.63-82.55,73.63ZM1133.24,457.12c-28.62,0-46.87,18.46-46.87,49.15,0,18.04,6.01,31.32,17.63,39.2,8.3,5.6,16.8,6.85,27.38,6.85,27.58,0,45.63-17.63,45.63-49.36,0-29.66-18.04-45.84-43.76-45.84Z"/>
    <path class="cls-2" d="M1316.79,576.99c-49.57,0-81.09-26.13-81.09-71.35,0-42.31,30.7-73.21,84-73.21,48.32,0,79.64,26.76,79.64,70.93s-33.81,73.63-82.55,73.63ZM1319.08,457.12c-28.62,0-46.87,18.46-46.87,49.15,0,18.04,6.01,31.32,17.63,39.2,8.3,5.6,16.8,6.85,27.38,6.85,27.58,0,45.63-17.63,45.63-49.36,0-29.66-18.04-45.84-43.76-45.84Z"/>
    <path class="cls-2" d="M1493.08,573.88h-69.48c6.84-5.39,11.82-8.71,11.82-26.55v-85.04c0-15.76-3.94-22.4-13.07-26.76h75.7c17.63,0,32.35,2.08,42.31,5.6,25.51,9.13,42.1,32.15,42.1,61.6,0,44.8-30.7,71.14-89.39,71.14ZM1496.82,459.19h-27.79v91.05h24.06c17.21,0,29.87-2.49,38.37-9.13,8.92-7.05,14.52-19.91,14.52-35.88,0-31.53-16.18-46.04-49.15-46.04Z"/>
  </g>
  <g>
    <path class="cls-3" d="M209.13,701.71c0-.62.54-1.16,1.16-1.16h35.77c.63,0,1.16.53,1.16,1.16v1.52c0,.62-.53,1.16-1.16,1.16h-32.65v27.12h28.28c.62,0,1.16.53,1.16,1.16,0,.98.18,2.59-1.16,2.59h-28.28l-.09,26.59c0,.62-.54,1.16-1.43,1.16h-1.61c-.62,0-1.16-.54-1.16-1.16v-60.13Z"/>
    <path class="cls-3" d="M267.13,761.93l27.48-62.09c.18-.36.62-.62,1.07-.62h.27c.45,0,.89.09,1.16.62l27.21,62.09c.18.53.18,1.07-.8,1.07h-2.32c-.62,0-1.07-.45-1.25-.8l-7.23-16.41h-34.08l-7.14,16.41c-.18.36-.62.8-1.25.8h-2.5c-.62,0-.89-.36-.62-1.07ZM311.2,742.3l-15.26-35.95h-.18l-15.52,35.95h30.96Z"/>
    <path class="cls-3" d="M352.15,701.71c0-.62.54-1.16,1.16-1.16h1.96c.62,0,1.16.53,1.16,1.16v60.13c0,.71-.62,1.16-1.25,1.16h-1.87c-.62,0-1.16-.54-1.16-1.16v-60.13Z"/>
    <path class="cls-3" d="M393.19,701.71c0-.62.45-1.16,1.16-1.16h22.13c10.88,0,19.89,8.21,19.89,19.09,0,9.01-6.24,16.24-14.72,18.65l13.03,23.11c.45.71.27,1.61-.62,1.61h-2.77c-.62,0-.98-.27-1.25-.8l-12.94-23.37c-1.16.09-2.14.09-3.3.09h-16.41v22.93c0,.62-.54,1.16-1.43,1.16h-1.61c-.62,0-1.16-.54-1.16-1.16v-60.13ZM416.3,735.16c8.56,0,15.79-6.69,15.79-15.52s-7.23-14.99-15.88-14.99h-18.74v30.51h18.83Z"/>
    <path class="cls-3" d="M476.69,700.28c.09-.36.45-.62.8-.62h.98c.45,0,.71.18.89.62l18.38,54.78h.18l18.47-54.78c.18-.45.45-.62.89-.62h.98c.36,0,.71.27.8.62l12.67,61.56c.18.89-.18,1.16-.98,1.16h-2.14c-.54,0-.98-.45-1.07-.98l-10.08-52.28h-.18l-18.02,53.44c-.18.54-.71.71-1.25.71h-.36c-.45,0-.98-.09-1.16-.71l-18.02-53.44h-.18l-10.08,52.28c-.09.54-.53.98-1.07.98h-2.14c-.8,0-1.16-.27-.98-1.16l12.67-61.56Z"/>
    <path class="cls-3" d="M591.16,699.65c17.93,0,32.21,14.36,32.21,32.21s-14.27,32.03-32.21,32.03-32.12-14.1-32.12-32.03,14.27-32.21,32.12-32.21ZM591.16,759.96c15.61,0,28.28-12.49,28.28-28.1s-12.67-28.28-28.28-28.28-28.19,12.67-28.19,28.28,12.58,28.1,28.19,28.1Z"/>
    <path class="cls-3" d="M654.95,701.71c0-.62.53-1.16,1.16-1.16h1.87c.62,0,1.16.53,1.16,1.16v38.09c0,11.51,7.23,19.98,19.09,19.98s19.27-8.39,19.27-19.89v-38.18c0-.71.36-1.16,1.25-1.16h1.78c.62,0,1.16.53,1.16,1.16v38.54c0,13.65-9.28,23.64-23.46,23.64s-23.28-9.99-23.28-23.64v-38.54Z"/>
    <path class="cls-3" d="M737.74,700.81c0-.71.62-1.16,1.34-1.16h1.52l42.82,55.76h.09v-53.71c0-.62.53-1.16,1.16-1.16h1.78c.62,0,1.16.53,1.16,1.16v61.02c0,.8-.71,1.16-1.43,1.16h-1.16c-.09,0-.8-.27-43.18-56.29h-.09v54.24c0,.62-.54,1.16-1.16,1.16h-1.69c-.62,0-1.16-.54-1.16-1.16v-61.02Z"/>
    <path class="cls-3" d="M833.83,704.38h-17.04c-.89,0-1.16-.54-1.16-1.34v-1.34c0-.71.54-1.16,1.16-1.16h38.36c.71,0,1.16.53,1.16,1.16v1.52c0,.62-.45,1.16-1.16,1.16h-17.13v57.45c0,.62-.53,1.16-1.43,1.16h-1.61c-.62,0-1.16-.54-1.16-1.16v-57.45Z"/>
    <path class="cls-3" d="M921.53,701.71c0-.62.54-1.16,1.16-1.16h19c10.97,0,18.47,6.33,18.47,16.15,0,7.05-4.28,12.22-9.81,14.45,6.33,1.69,11.78,6.33,11.78,14.9,0,9.99-8.03,16.95-19.63,16.95h-19.81c-.62,0-1.16-.54-1.16-1.16v-60.13ZM942.85,759.25c8.65,0,14.72-5.53,14.72-13.29s-6.78-12.67-15.26-12.67h-16.68v25.96h17.22ZM942.32,729.45c8.39,0,13.29-5.26,13.29-12.58,0-7.76-5.35-12.4-13.92-12.4h-15.97v24.98h16.59Z"/>
    <path class="cls-3" d="M986.03,761.93l27.48-62.09c.18-.36.62-.62,1.07-.62h.27c.45,0,.89.09,1.16.62l27.21,62.09c.18.53.18,1.07-.8,1.07h-2.32c-.62,0-1.07-.45-1.25-.8l-7.23-16.41h-34.08l-7.14,16.41c-.18.36-.62.8-1.25.8h-2.5c-.62,0-.89-.36-.62-1.07ZM1030.1,742.3l-15.26-35.95h-.18l-15.52,35.95h30.96Z"/>
    <path class="cls-3" d="M1071.06,701.71c0-.62.45-1.16,1.16-1.16h22.13c10.88,0,19.89,8.21,19.89,19.09,0,9.01-6.24,16.24-14.72,18.65l13.03,23.11c.45.71.27,1.61-.62,1.61h-2.77c-.62,0-.98-.27-1.25-.8l-12.94-23.37c-1.16.09-2.14.09-3.3.09h-16.41v22.93c0,.62-.54,1.16-1.43,1.16h-1.61c-.62,0-1.16-.54-1.16-1.16v-60.13ZM1094.16,735.16c8.56,0,15.79-6.69,15.79-15.52s-7.23-14.99-15.88-14.99h-18.74v30.51h18.83Z"/>
    <path class="cls-3" d="M1146.89,701.71c0-.62.54-1.16,1.16-1.16h19c10.97,0,18.47,6.33,18.47,16.15,0,7.05-4.28,12.22-9.81,14.45,6.33,1.69,11.78,6.33,11.78,14.9,0,9.99-8.03,16.95-19.63,16.95h-19.81c-.62,0-1.16-.54-1.16-1.16v-60.13ZM1168.21,759.25c8.65,0,14.72-5.53,14.72-13.29s-6.78-12.67-15.26-12.67h-16.68v25.96h17.22ZM1167.68,729.45c8.39,0,13.29-5.26,13.29-12.58,0-7.76-5.35-12.4-13.92-12.4h-15.97v24.98h16.59Z"/>
    <path class="cls-3" d="M1220.31,701.71c0-.62.54-1.16,1.16-1.16h35.78c.62,0,1.16.53,1.16,1.16v1.52c0,.62-.53,1.16-1.16,1.16h-32.65v24.62h28.28c.62,0,1.16.54,1.16,1.16v1.52c0,.63-.54,1.16-1.16,1.16h-28.28v26.41h32.65c.62,0,1.16.53,1.16,1.16v1.43c0,.62-.53,1.16-1.16,1.16h-35.78c-.62,0-1.16-.54-1.16-1.16v-60.13Z"/>
    <path class="cls-3" d="M1291.51,701.71c0-.62.45-1.16,1.16-1.16h22.13c10.88,0,19.89,8.21,19.89,19.09,0,9.01-6.25,16.24-14.72,18.65l13.03,23.11c.45.71.27,1.61-.62,1.61h-2.77c-.62,0-.98-.27-1.25-.8l-12.94-23.37c-1.16.09-2.14.09-3.3.09h-16.41v22.93c0,.62-.54,1.16-1.43,1.16h-1.61c-.62,0-1.16-.54-1.16-1.16v-60.13ZM1314.62,735.16c8.56,0,15.79-6.69,15.79-15.52s-7.23-14.99-15.88-14.99h-18.74v30.51h18.83Z"/>
    <path class="cls-3" d="M1363.6,754.7l.8-1.07c.62-.71,1.25-.98,1.96-.36.89.8,7.49,6.87,16.5,6.87,8.12,0,14.99-5.44,14.99-11.96,0-7.94-6.51-11.51-17.31-15.17-10.35-3.66-17.22-7.32-17.22-17.57,0-6.69,5.35-15.79,19.27-15.79,8.83,0,15.34,4.55,15.34,4.55.36.27.98.89.36,1.87-.27.36-.53.8-.71,1.16-.54.71-1.07.98-1.96.45-.27-.18-6.25-4.19-13.11-4.19-10.97,0-15.08,6.78-15.08,11.87,0,7.58,5.8,10.88,14.81,13.83,12.22,4.19,19.98,8.48,19.98,18.82,0,8.92-9.19,15.88-19.45,15.88s-17.75-6.24-18.91-7.32c-.53-.45-.98-.89-.27-1.87Z"/>
  </g>
</svg>