<?xml version="1.0" encoding="UTF-8"?>
<svg id="Layer_1" data-name="Layer 1" xmlns="http://www.w3.org/2000/svg" viewBox="0 0 1582 1080">
  <defs>
    <style>
      .cls-1 {
        stroke: #006044;
        stroke-miterlimit: 10;
        stroke-width: .25px;
      }

      .cls-1, .cls-2 {
        fill: #006044;
      }

      .cls-3 {
        opacity: .15;
      }

      .cls-2, .cls-4 {
        stroke-width: 0px;
      }

      .cls-4 {
        fill: #033222;
      }
    </style>
  </defs>
  <g class="cls-3">
    <path class="cls-4" d="M925.2,20.91c-2.48-5.15-4.29-10.68-7.59-15.67,4.55,4.98,10.54,7.19,17.31,9.94-1.06-3.1-3.18-3.72-4.75-4.89-3.53-2.65-7.87-4.07-10.91-7.46-1.48-1.65-3.41-1.17-5-.12-1.73,1.14-1.49,2.93-.76,4.55,1.63,3.63,3.49,7.15,4.94,10.86,11.16,28.59,5.59,55.05-13.03,79.7-7.62,10.09-17.6,17.48-27.84,24.49-1.18.81-2.42,1.93-4.7,1.12,5.59-4.38,10.94-8.42,16.13-12.65,17.04-13.89,28.21-31.73,32.18-53.14,2.61-14.12,1.13-28.34-5.69-41.18-1.86-3.5-3.98-6.85-5.14-10.75-1.05-3.56-.14-5.29,3.74-5.87,12.81-1.91,22.53,4.87,28.67,16.43,7.48,14.06,4.58,27.99.66,41.95-8.27,29.48-24.37,55.16-41.72,80.08-5.55,7.97-11.4,15.74-17.24,23.5-1.05,1.39-.68,2.55-.4,3.79,4.14,18.33,4.18,37.33,6.9,55.89,4.14,28.22,5.53,56.83,8.31,85.24,1.36,13.87,1.05,27.97,2.2,41.87,1.54,18.62,2.25,37.3,3.16,55.97,1.25,25.72,1.9,51.48,2.77,77.23.58,17.16.88,34.35.4,51.49-.42,14.78-.08,29.59-1.78,44.43-1.52,13.28-.31,26.63-.7,39.97-.55,18.71-1.04,37.42-2.48,56.1-3.09,39.99-6.4,79.97-10.01,119.94-3.6,39.84-11.02,79.28-17.17,118.86-4.05,26.08-10.57,51.59-18.06,76.9-4.26,14.37-9.86,28.51-17.43,41.43-9.53,16.24-21.59,30.8-36.81,42.12-7.43,5.53-15.77,8.18-24.96,6.46-2.07-.39-3.81-1.27-5.2-2.59-3.5-3.32-7.5-5.92-11.73-8.04-11.58-5.82-14.48-16.7-15.83-28.55-2.97-26,3.91-51.36,8.01-76.86,3.15-19.6,8.1-39.03,10.38-58.68,3.83-32.98,8.68-65.86,12.6-98.83,2.55-21.5,6.5-42.87,9.3-64.38,2.39-18.31,3.79-36.66,5.83-54.98,1.78-15.97,3.54-31.96,4.42-47.97,1.14-20.89,4.49-41.73,5.04-62.54.63-23.95,3.56-47.89,2.61-71.83-.25-6.2.21-12.49.83-18.71,1.1-10.98.23-21.9.02-32.79-.28-14.67-.52-29.37.27-44.02,1-18.55-.64-36.99.41-55.48,2.47-43.64-.49-86.95-1.6-130.39-.38-14.96.02-30-.79-44.94-.77-14.13-1.58-28.26-1.1-42.44.56-16.5-.09-33.04,3.38-49.48,2.6-12.31,14.24-20.31,26.53-19.8,10.07.42,15.65,5.75,20.91,13.22,8.86,12.6,14.22,26.79,18.27,41.62,1.21,4.42,2.62,8.02,7.25,9.69,3.82,1.37,6.34,5.66,11.6,5.29-3.58-3.72-8.1-5.18-11.44-8.45,4.68,1.53,8.42,5.09,13.59,5.88-3.13-1.96-6.26-3.93-9.39-5.89,5.74-.33,8.81,4.88,13.92,5.82-2.52-3.37-6.36-4.83-9.62-7.05-2.55-1.73-2.72-2.88.2-4.3-.73,1.16-.79,2.35.35,3.09,3.47,2.28,7.02,4.44,10.53,6.65-1.45-4.26-5.73-4.91-7.7-8.3,2.3.93,4.37,2.16,6.37,3.5,6.2,4.15,9.33,2.58,10.96-5.86-5.8,3.56-8.14-3.94-13.4-2.86,3.11,1.95,6.22,3.9,9.84,6.18-2.12.79-3.11-.95-4.32-.17.07,1.81,2.62,1.64,2.15,3.99-2.74-1.72-5.3-3.31-7.85-4.93-2.19-1.4-4.3-3.12-7.15-1.22,5-4.59,9.9-9.31,15.66-12.91-2.22,2.47.12,3.16,1.5,3.96,2.73,1.57,5.12,3.29,4.81,8.03,1.64-2.61,2.67-4.14,3.58-5.74.61-1.08.28-2.43-.95-1.89-4.87,2.11-6.08-2.89-9.11-4.28,2.75.19,4.37,2.77,7.33,3.41-.25-2.56-2.82-3.08-3.85-5.01.57.06.74.02.86.09,8.19,4.68,8.33,4.75,13.01-3.86,3.9-7.17,8.29-14.11,11.36-21.71.35-.87,1.27-1.68.21-3.13-2.42,3.05-5.18,2.16-7.96.16-.67,3.11,1.99,2.87,2.38,4.61-1.29.88-2.42-1.07-4.29-.39,1.49,1.38,2.78,2.58,4.2,3.9-2.3,1.68-2.44-3.05-4.54-1.01-.47.88.33,1.1.72,1.57.82.99,3.41.97,2.18,2.98-.44.72-1.08,3.19-3.25,2.07-1.73-.89-4.46-1.68-3.68-3.87,1.64-4.58,4.09-8.89,6.33-13.24.77-1.48,2.1.34,3.35-.48-3.77-2.49-2.3-6.12-.63-8.71,1.38-2.15,2.98,1.69,5.06,1.04.02-.05.26-.52.2-.56-8.56-6.01-.92-13.84-2.74-21.57,4.07,2.56,6.86,4.31,10.35,6.49-4.32.54-4.99-4.8-10.22-3.23,3.31,2.08,5.67,3.59,8.06,5.05,1.58.97,2.63,2.55,1.65,4.15-1.29,2.1-2.85.43-4.23-.32-1.26-.69-2.22-2-4.19-1.86.51,2.89,3.18,3.52,4.82,5.07.97.92,2.31,1.67.94,3.21-1.17,1.33-2.03.1-2.94-.52-1.14-.78-2.15-2.01-3.93-1.18.55,1.67,2.09,2.05,3.21,2.84,2.79,1.98,4.06,3.86-.45,5.28-1.55.49-1.08,1.15-.38,1.52,1.97,1.04,1.05,2.84,1.1,4.5,5.33-7.24,7.16-15.68,9.59-23.84,1.84-6.18,3-12.51,2.89-18.98-.05-3.09-.75-4.96-4.67-3.82,5.4,5.79.74,12.32.8,18.54.01,1.25-1.35,1.98-2.6.95-2.66-2.19-5.66-3.82-8.57-5.6-1.39-.85-1.72-2.84-1.68-4.51.07-2.49,2.75-.02,3.53-2.17-3.64-.35-3.68-3.29-4.02-6.11-.24-1.94.4-4.07-.86-5.81,3.14,2.47,6.17,5.13,10.44,5.42-3.26-2.14-4.83-7.61-10.4-5.24.18-1.84-.95-3.14-1.66-4.61,4.23,2.66,8.01,6.13,13.19,7.12-2.95-3.85-7.03-6.07-11.18-8.15-.78-.39-1.51.45-1.99,1.2ZM877.58,144.15c1.95-1.21,6.68-1.36.62-5.69,4.94,2.19,7.57,5.63,11.96,5.56-1.63-2.75-4.31-4.15-6.94-5.4-2.5-1.19-5.11-5.21-7.26-3.18-1.68,1.6.54,5.81,1.81,8.65,1.01,3.68,5.44,3.08,7.04,5.94-1.38.16-2.77-1.93-4.47-.01,1.2.88,2.28,1.96,3.58,2.56,1.86.85,3.73.11,4.72-1.62,1.18-2.06-.99-2.45-2.09-3.16-2.74-1.77-5.55-3.44-8.97-3.63ZM824.32,144.3c3.39-.23,3.72-2.24,3.2-5.06-.57-3.12-2.09-6.25-.41-9.51,1.17,3.32.55,7.14,3.75,11.2-.15-7.18.23-13-.94-18.7-.3-1.46-1.04-3.37-2.76-2.84-2.1.65-.17,2.17-.14,3.31.03,1.21,1.09,2.51-1,4.14-.46-3.78-.05-7.62-2.71-10.17-1.07.47-1.12,1.17-1.02,1.81.77,5.26,1.01,10.68,1.93,15.82.62,3.46-1.92,6.88.29,9.97-3.17,1.67-4.37,4.08-2.78,7.52-.27-2.89,8.22-2.72,2.6-7.49ZM847.7,644.53c3.14-7.43.97-15.41,3.07-22.96.16-.56-.52-1.73-1.1-2.01-1.29-.62-.86,1.61-1.89,2,.52-11.38.82-22.35,1.56-33.3,1.62-23.77.66-47.45.82-71.17.18-26.08,1.37-52.21,1.14-78.26-.13-15.05-.21-30.14-1.18-45.14-.25-3.89,1.67-7.68,1.06-11.04-2.4-13.16-1.95-26.48-2.1-39.8-.02-2.01,2.37-2.56,1.46-5.07-2.19-6.09-.36-12.98-2.3-19.31-.49-1.61-1.58-4.59,1.39-6.33.91-.54.59-2.09-.54-2.4-1.83-.5-1.32-1.95-1.59-3.18-2.35-10.84-1.54-22.12-3.25-33.08-.57-3.68-1.96-7.48-1.53-11.17,1.32-11.38-.12-22.69-1.74-33.51-2.36-15.7-4.45-31.43-6.3-47.21-.51-4.39-.32-4.43-5.52-5.31,4.13,11.57,3.35,23.62,4.19,35.45-2.06-5.29-1.37-11.19-3.5-16.68-1.04,13.24,3.04,25.52,2.97,38.52-.04,8.09,1.53,16.59,2.58,24.88.35,2.74-.77,5.53-.28,8.01,2,10,4.21,19.91,1.77,30.35-.26,1.13-1.11,3.75-.06,3.41,3.69-1.2,2.21,1.99,2.14,2.67-.72,6.58-.28,13,1.03,19.37.16.79.33,1.88-.06,2.46-2.95,4.43-1.74,9.26-1.63,13.83.73,30.48,2.24,60.91,2.45,91.41.26,38.72-.34,77.47-.81,116.22-.28,23.28-1.67,46.56-3.01,69.84-2.59,44.9-7.58,89.66-12.54,134.41-1.51,13.61-3.52,27.18-5.3,40.77-.14,1.08-.91,2.27.35,3.13.77.52,1.03-2.42,1.87-.43.45,1.06-.31,1.89-1.59,1.95-2.19.11-1.52,1.97-1.69,3.08-1.33,8.37-2.65,16.74-3.78,25.13-4.48,33.27-10.72,66.29-17.52,99.21-1.05,5.11,1.16,10.64-2.99,15.41-1.96,2.26,1.62,4.44.99,7.09-1.22,5.08-2.24,10.21-3.36,15.32-3.45,15.82-9.17,31.1-12.33,46.98-.35,1.74-1.03,3.49.7,5.5,2.88-10.11,5.76-20.22,8.63-30.33.15.04.3.09.46.13-.84,4.19-1.68,8.38-2.51,12.57,0-1.71,6.39.73,2.58-3.6-.74-.84,1.09-4.04,1.8-6.33.83,1.5-.99,3.19.98,4.59.95-3.23,3.5-7.39,2.42-9.11-2.31-3.67-.65-7.59.81-8.85,4.28-3.73,3.6-8.92,4.94-13.12,4.02-12.57,7.06-25.53,8.27-38.65,1.15-12.44,5.5-24.24,7.16-36.66,2.1-15.77,6.16-31.43,8.79-47.21,3.71-22.29,6.39-44.72,9.94-67.04,3.56-22.36,4.98-44.88,7.92-67.29,2.16-16.45,3.61-32.99,6.01-49.43.44-3,1.26-6.02-.23-8.89v.19ZM763.76,996.49c1,.93-.47,2.69,1.4,3.72,1.44-7.2,4.07-13.99,3.93-21.26,1.61-2.55,2.12-5.5,2.11-8.27,0-1.01-2.25-1.65-1.73-4.08,1.59-7.5,3.31-14.97,4.51-22.56.85-5.38.95-10.97,4.71-16.1,2.62-3.57,1.78-9.16,2.73-13.78,5.28-25.63,8.19-51.53,11.9-77.34.14-1,.3-2.84-.39-2.64-3.56,1.04-1.49-1.94-1.22-2.05,3.4-1.4,2.45-4.62,3.28-7.08,1.35-3.99-.53-8.14.64-11.93,1.55-4.99,2.4-9.71.79-14.66-.49-1.5-1.17-3.31,1.57-3.73,1.34-.21,1.04-1.52,1.16-2.47,1.27-9.55,2.73-19.08,3.76-28.65,1.84-17.14,4.16-34.23,5.49-51.41,1.33-17.14,3.68-34.24,5.54-51.36.31-2.85,1.57-7.35.33-8.27-3.63-2.7-.37-5.04-.44-7.44-.03-1-.15-1.99-.21-2.99-.23-3.83-1.22-7.49,2.1-11.11,1.75-1.91,1.26-5.37,1.1-8.34-1.77.61-1.93,2.53-1.93,2.36.11-6.74.98-13.51.75-20.2-.21-6.04,3.44-11.82,1.39-17.87-.09-.28.31-.9.63-1.17,3.42-2.89,2.55-6.56,1-9.33-2.92-5.2,1.79-10.62-.52-15.64-.05-.1.08-.42.15-.43,3.84-.68,2.62-4.26,2.52-5.91-.33-5.41.45-10.77.5-16.14.06-5.56.12-11.13.5-16.68.31-4.51-2.67-8.97.34-13.54.29-.45-.2-1.34-.08-1.98,1.69-9.06-1.93-17.51-1.9-26.35.06-16.56.25-33.13.65-49.7.1-3.96.83-8.17.64-11.92-.54-10.61,0-21.25-.38-31.86-.03-.83-.77-2.2.6-2.57,2.29-.62,1.56-2.17.74-2.87-2.01-1.71-1.43-3.92-1.47-6.04-.2-10.69.67-21.42-.03-32.09-.35-5.35-.63-10.73-.57-16.1.39-32.66-3.52-65.06-2.06-97.77.23-5.12-1.96-9.57-1.98-14.61-.05-13.97-.35-27.94-1.04-41.87-.24-4.81,1.4-10.27-1.35-14.36-2.72-4.05-.56-9.64-4.41-13.05-.29-.26-.18-1.63.17-1.9,4.31-3.31-1.59-7.56,1.43-10.92-3.14-5.58-1.37-11.74-1.37-17.69,0-1.18.39-2.87-.96-2.99-4.92-.42-.02-3.73-1.41-5.1,4.41-1.43,2.59-5.23,3.21-8.09.46-2.14.81-4.32,1.2-6.45,1.07-5.86,4.31-10.7,7.02-15.84-5.87,3.78-6.92,10.39-9.82,16.07-.4-3.15,1.32-5.79,1.62-8.67-2.31,3.46-3.65,7.2-4.14,11.29-3.07,25.48-2.79,50.95-2.09,76.37,1.01,36.85,2.65,73.65,3.96,110.47.91,25.57,1.14,51.19,1.43,76.8.59,52.08-.04,104.2-1.21,156.32-.47,21.07-1.24,42.19-2.38,63.27-2.61,48.3-7.22,96.52-12.47,144.69-5.16,47.34-11.54,94.56-18.16,141.76-5.3,37.8-11.88,75.41-19.27,112.92-3.5,17.77-8.42,35.52-7.17,53.68.59,8.55-.38,18.29,8.96,24.8-.24-3.74-1.18-6.24-1.47-8.83-.89-7.9,2.52-15.68,1.19-23.55-.05-.31,1-.75,1.33-1.26,3.13-4.76,5.23-9.81,4.7-15.59-1.2-.22-1.24,1.05-1.93,1.42-.04-.69-.21-1.4-.08-2.06.59-3.15,1.27-6.29,1.92-9.43ZM806.89,1015.09c3.76-5.82,2.41-13.1-3.09-16.69-6.49-4.24-13.98-2.76-17.94,3.55-3.95,6.28-2.51,14.55,3.21,18.43,5.29,3.59,13.69,1.1,17.82-5.29ZM848.57,169.11c4.39-6.98,2.92-12.85-4.32-17.3-4.41-2.71-11.61-.22-15.13,5.23-3.44,5.32-2.17,13.2,2.61,16.23,6.09,3.86,12.85,2.19,16.85-4.16ZM828.57,1040.8c-5.96,6.1-14.35,9.89-17.56,18.69-.38,1.03-1.44,1.25-2.51,1.37-5.13.6-9.94,1.73-11.34,8.03-.23,1.03-.9,1.73-2.07,1.96-1.23.25-3.49-.35-2.5,2.35.99,2.68,2.53,1.06,3.89.24,13.38-8.1,24.08-18.99,32.08-32.64ZM768.06,1037.91c-1.52,2.41-1.66,4.92-1.81,7.47-.41,6.89,6.02,10.78,6.63,17.21.02.19.68.51.76.44,2.99-2.72,6.42-.04,9.54-1.2,1.31-.49,2.82-.94,2.63-2.54-.21-1.73-1.83-.85-2.85-.79-3.16.17-6.04-.41-7.55-3.44-2.37-4.74-3.66-9.76-2.94-15.29.18-1.41,1.94-3.49-.58-4.29-1.98-.63-2.72,1.51-3.82,2.44ZM783.88,1025.79c.43-1.35.75-2.49,1.14-3.6.85-2.38-.44-4.44-2.07-4.88-1.86-.5-1.91,2.06-2.68,3.46-.88,1.6.03,5.53-3.97,4.07,1.32,3.1-.84,5.02-2.54,7.09.27.17.57.52.82.48,3.74-.64,2.36,1.9,1.93,3.56-.6,2.27-1.28,4.57-2.31,6.67-.92,1.9-.14,3.77.93,4.14,2.21.76,1.94-1.75,2.21-2.96.51-2.33.94-4.45,2.92-6.22,1.53-1.36,2.09-3.88,1.71-5.65-.59-2.73-.81-4.85,1.92-6.16ZM825.39,169.88c-.29-3.32-1.08-6.55-.32-9.82.91-3.96,3.02-7.15,6.35-9.49,2.01-1.42.62-3.74,1.58-5.46.03-.05-.72-.78-1.01-.71-1.91.45-1.61,2.26-2.17,3.6-.37.87-1.12,1.63-1.82,2.33-4.44,4.42-5.69,9.84-5.23,15.73.12,1.56.07,3.5,2.64,3.82ZM848.09,149.67c2.49,5.47,4.69,9.56,4.34,14.43-.37,5.08-4.25,8.51-6.91,13.26,10.08-6.22,11.83-20.9,2.58-27.69ZM943.27,27.7c-5.05-5.78-11.78-9.02-18.43-12.37,5.22,5.52,11.73,9.08,18.43,12.37ZM768.1,1061.09c-3.64-1.64-4.47,3.27-7.34,3.27.32,1.23-.25,2.92,1.11,3.6,2.4,1.19,4.44.13,6-1.89,1.26-1.62,1.43-3.38.22-4.98ZM892.34,146.23c6.08-5.72,6.55-8.72,1.87-10.94,2.65,7.05-2.17,4.69-6.38,3.84,2.03,3,5.11,3.69,4.5,7.1ZM826.07,107.46c.27-4.76.37-9.52-2.41-13.62.35,4.63-.41,9.48,2.41,13.62ZM814.52,113.94c.55-5.06,2.07-10.05.71-15.37-1.94,7.98-2.03,9.29-.71,15.37ZM885.3,137.84c.28-.36.56-.71.84-1.07-3.07-1.93-6.12-3.87-9.21-5.76-.62-.38-1.46-1.1-2.1-.14-.85,1.27.33,1.73,1.14,2.15,3.1,1.64,6.22,3.22,9.33,4.82ZM852.06,399.2c2.78-3.78,1.25-6.68.81-9.54-1.87,2.81-1.56,5.67-.81,9.54ZM942.94,23.57c-1.65-3.11-4.39-4.5-8.49-5.92,2.3,4.08,5.19,5.3,8.49,5.92Z"/>
    <path class="cls-4" d="M799.84,176.03c-2.21-1.27-3.47.67-4.67,1.86-16.39,16.28-32.96,32.41-47.57,50.4-9.46,11.65-18.48,23.68-27.37,35.78-27.48,37.42-51.26,77.27-75.42,116.83-17.47,28.6-33.79,57.91-50.57,86.93-16.53,28.6-33.28,57.1-51.84,84.42-17,25.03-32.73,50.91-50.61,75.34-15.02,20.52-29.37,41.53-45.17,61.5-13.35,16.87-25.67,34.55-38.67,51.71-7.92,10.46-16.23,20.61-24.41,30.86-1.14,1.43-2.69,2.57-2.56,4.72,8.65-4.51,109.33-140.09,144.27-191.7,45-66.47,83.39-136.85,124.77-205.51-.42,3.57-2.69,6.27-4.5,9.13-1.67,2.65-2.09,5.25-.02,7.4,2.26,2.35,5.34,3.17,8.67,2.42,1.29-.29,1.93-1.55,2.1-2.69.34-2.31-1.51-3.07-3.1-3.87-.94-.47-2.02-1.03-1.32-2.16,1.01-1.65,2.03-.4,2.75.39,1.86,2.06,4.16,5.4,6.67,3.12,1.9-1.72-1.37-4.52-2.6-6.73-.22-.39-.38-.81-.63-1.36,8.11,3.29,7.94,3.42,6.93,11.03-.29,2.19-.38,2.4-2.24,1.98-2.45-.56-4.66.73-5.19,2.93-.61,2.53,1.76,3.5,3.82,4.23,3.38,1.22,6.15,2.29,8.67-2.47,2.28-4.31,3.07.9,4.8,1.33-2.11.64-4.57.31-5.38,2.94-.63,2.04.92,3.18,2.37,3.87,2.05.98,6.24,1.91,6.29.85.18-3.6,3.84-4.44,4.37-6.86.55-2.53-2.41-4.08-3.65-6.19-.38-.64-1.54-.62-1.38-2.3,2.32,1.46,4.45,2.66,6.44,4.08,1.85,1.32,3.81,2.55,2.01,5.66-1.23,2.14.57,4.1,1.28,6.05-.34.18-.68.49-.86.42-2.28-.89-4.77-1.44-6.16,1.22-1.37,2.61,2.62,1.92,2.8,3.81.22,2.24,5.07,1.07,3.37,3.51-1.46,2.1-3.7-.8-5.27-1.87-11.1-7.55-22.49-14.6-34.57-20.49-.98-.48-1.8-1.39-3.48-1.03,4.64,6.07,12.99,6.71,16.88,12.62-6.93-2.48-13.25-7.75-21.66-7.73,4.33,2.74,8.77,5.18,12.93,8.08,2.89,2.02,6.49,3.04,7.99,6.82.37.92,1.67,1.62,2.71,2.01,16.26,6.26,27.57,18.34,37.33,32.29.14.2.58.18,1.9.53-7.02-16.71-20.17-26.59-32.5-37.73,1.74,1.09,3.5,2.15,5.21,3.29,1.77,1.18,3.49,2.45,5.24,3.66,10.95,7.6,9.43,8.12,16.73-3.06,9.54-14.61,18.7-29.47,28.45-43.94,20.83-30.92,40.88-62.38,62.8-92.56,4.4-6.06,9.13-11.89,13.9-17.7-6.36,11.83-13.8,23.16-22.29,33.31-13.04,15.57-23.07,32.96-34.04,49.81-4.48,6.88-8.77,13.88-13.29,20.73-12.73,19.26-25.51,38.49-38.34,57.68-1.81,2.71-1.55,4.24.57,6.88,4.05,5.05,5.88,11.56,8.48,17.55,6.76,15.59,1.62,29.85-5.39,44.2-21.09,43.15-47.19,83.3-73.76,123.17-14.33,21.5-28.54,43.07-43.1,64.41-15.03,22.05-30.21,44-45.68,65.74-16.55,23.26-33.54,46.2-50.31,69.3-7.13,9.82-14.13,19.75-21.31,29.53-4.54,6.17-4.64,5.94-10.48,1.7-9.54-6.93-19.16-13.74-28.92-20.35-10.03-6.79-19.25-14.75-29.79-20.81-1.98-1.14-3.91-3.02-6.01-3.19-8.77-.71-11.53-8.4-16.37-13.68-1.75-1.91-.64-3.58.36-5.48,3.94-7.52,9.93-13.42,15.21-19.89,12.41-15.2,24.46-30.69,36.06-46.54,17.26-23.57,34.71-46.99,51.91-70.6,8.65-11.88,16.88-24.07,25.39-36.06,6.43-9.06,12.79-18.18,19.56-26.98,7.52-9.79,13.52-20.56,20.44-30.72,19.56-28.72,36.95-58.78,54.04-88.96,23.35-41.23,47.46-81.99,72.11-122.45,8.35-13.72,17.76-26.71,26.2-40.35,7.73-12.49,16.14-24.52,24.75-36.39,13.53-18.67,27.8-36.78,42.96-54.15,11.45-13.11,24.3-24.78,36.75-36.86.85-.82,1.61-2.76,3.16-1.78,1.07.68.66,2.1-.11,3.17l.18-.03ZM655.2,440.23c-26.38,35.41-51.15,71.97-76.3,108.26.4.3.81.6,1.21.9,6.91-9.84,13.82-19.69,20.73-29.53-30.19,45.72-61.67,90.51-94.35,134.47,3.26-5.19,6.51-10.38,9.77-15.57-.26-.17-.53-.34-.79-.51-18.92,26.66-37.84,53.32-56.76,79.99.39.28.78.56,1.16.85,14.33-19.93,28.66-39.85,42.99-59.78-23.47,36.22-50.35,70.08-73.09,106.81,5.33-4.2,8.32-10.23,12.32-15.47-11.39,19.82-26.31,37.29-37.91,57.03-3.41-1.69-2.43-4.78-.67-8.63-3.75,3.8-3.82,3.86-6.59.76-6.17-6.92-13.11-13.17-17.51-21.62-3.39,2.85-4.21,7.18-7.82,9.48,1.21.76,2.57,1.12,3.06,2,3.88,6.88,10.01,10.56,16.71,14.4,14.4,8.25,28.03,17.83,41.87,27.03,5.04,3.35,9.66,7.34,14.66,10.75,9.41,6.43,9.47,6.35,16.38-3.05.3-.41.63-.81.93-1.23,14.92-20.4,30.49-40.34,44.58-61.3,18.2-27.08,37.87-53.1,56.09-80.16,8.55-12.7,17.26-25.34,26.1-37.86,21.8-30.87,42.65-62.4,62.52-94.59,16.62-26.92,32.76-54.02,45.02-83.27,3.68-8.79,3.03-16.54-2.54-23.58-13.27-16.77-30.28-29.02-48.48-39.61-3.73-2.17-7.74-5.27-13.5-4.49,3.54,4.37,8.37,5.02,12.23,7.32,2.51,1.49,4.87,2.82,1.6,7.65,3.83-3.43,6.97-.98,7.37-.19,2.14,4.12-2.61,6.98-3.44,11.29,2.89-2.33,3.64-5.97,7.52-8.37-1.31,2.74-2.09,4.37-2.91,6.1,2.32.19,2.05-3.27,4.75-2.7-15.42,21.9-30.69,43.59-45.96,65.28,12.12-20.22,26.92-38.62,39.03-58.86ZM463.46,702.31c-2.9,11.9-12.59,19.76-18.09,29.91.37.22.73.44,1.1.66,13.75-19.29,27.5-38.58,41.24-57.87-9.53,9.18-15.74,21.04-25.14,30.42.3-1.04.59-2.07.89-3.11ZM562.43,575.29c-.53-.38-1.06-.76-1.59-1.13-13.87,20.75-28.75,40.79-43.25,61.09.42.3.84.6,1.26.89,14.53-20.28,29.05-40.57,43.58-60.85ZM650.37,442.53c-15.56,20.46-30.95,41-44.66,62.69.35.24.7.48,1.05.72,14.54-21.14,29.08-42.28,43.62-63.41ZM578.48,543.87c.39.23.78.46,1.17.68,8.3-11.82,16.59-23.63,24.89-35.45-.39-.28-.79-.55-1.18-.83-8.29,11.87-16.58,23.73-24.88,35.6ZM404.14,803.64c8.45-8.72,13.46-19.79,20.47-29.5-7.47,9.39-15.11,18.67-20.47,29.5ZM549.37,585.32c.46.36.93.72,1.39,1.08,7.82-11.29,15.65-22.59,23.47-33.88-10.06,9.69-16.02,22.26-24.86,32.8ZM410.09,782.97c.42.26.85.53,1.27.79,7.43-10.78,14.87-21.56,22.3-32.34-.38-.26-.75-.52-1.13-.78-7.48,10.78-14.96,21.55-22.45,32.33ZM519.22,628.05c.34.24.67.48,1.01.72,7.56-10.12,15.12-20.24,21.09-31.49-7.37,10.26-14.74,20.52-22.1,30.78ZM442.89,742.69c-4.15,3.64-19.81,26.38-20.79,30.81,7.27-10.82,14.83-19.67,20.79-30.81ZM404.97,797.22c6.44-6.63,10.55-14.78,15.18-22.6-5.1,7.52-11.46,14.17-15.18,22.6ZM490.29,664.88c-7.55,8.58-13.21,18.55-19.84,27.8,7.07-8.94,14.63-17.51,19.84-27.8ZM443.83,739.85c.41.29.82.59,1.23.88,3.94-6.27,7.87-12.54,11.81-18.81-4.94,5.55-9.69,11.25-13.04,17.93ZM518.13,631.84c-.32-.31-.65-.61-.97-.92-4.53,6.4-9.05,12.8-13.58,19.21.4.29.8.58,1.2.88,4.45-6.39,8.9-12.78,13.36-19.17ZM490.48,668.54c.38.23.76.46,1.14.7,4.03-4.32,6.67-9.64,9.24-15.03-3.46,4.78-6.92,9.56-10.37,14.34ZM563.97,570.99c3.95-2.76,6.71-6.39,8.73-12.36-4.93,3.9-6.17,8.59-8.73,12.36ZM434.68,748.73c4.99-4.56,8.4-9.87,8.32-13.25-2.83,4.51-5.37,8.55-8.32,13.25ZM626.62,471.6c-.41-.23-.81-.47-1.22-.7-2.75,3.63-5.39,7.33-6.52,11.93,2.58-3.74,5.16-7.49,7.74-11.23Z"/>
    <path class="cls-4" d="M799.66,176.06c1.62,7.54.98,15.31,1.22,22.98.57,18.17.77,36.36,1.14,54.54.05,2.62-.78,4.6-2.48,6.86-11.41,15.17-22.51,30.55-33.26,46.21-20.62,30.04-40.83,60.34-60.55,90.98-.74,1.16-1.12,2.99-3.4,2.76.2-2.36,1.73-4.03,2.85-5.78,13.47-21.04,27.08-41.99,40.5-63.06,12.54-19.68,26.33-38.5,39.47-57.76,1.91-2.8,4.38-5.21,6.63-7.78,1.03-1.17,2.31-2.4,1.71-3.99-.44-1.18,1.63-2.81-.48-3.44-1.35-.4-2.59.36-3.68,1.23-5.96,4.77-11.23,10.24-15.5,16.62-1.2,1.79-4.09,3.09-4.54,3.09-4.92.02-4.19,5.96-4.06,6.17,2.79,4.61-3.49,4.83-3.66,7.77-3.18-.18-5.24,2.94-5.63,4.58-1.56,6.63-7.75,9.27-10.9,14.38-.17.28-.74.46-.73.67.15,5.8-5.76,8.97-6.4,14.51-.39,3.37-4.26,4.52-5.65,7.4-.19.39-1.1.5-1.2.87-1.82,6.54-7.98,11.11-8.42,18.3-.13,2.18-.79,4.2-3.48,4.98-1.08.31-2.08,1.74-2.73,2.87-5.32,9.18-11.67,17.66-17.69,26.37-1.73,2.5-2.35,5.4-1.63,8.93-3.59-.82-5.9-2.94-8.37-4.63-7.16-4.9-15.28-8.26-22.01-13.85-2.65-2.2-3.8-4.3.29-6.42.42-.22.78-.67,1.07-1.08,7.27-10.14,15.32-19.84,21.49-30.6,3.58-6.24,8.41-11.48,11.7-17.65,4.35-8.16,10.42-15.11,14.71-23.36,3.83-7.37,10.28-13.36,15.25-20.2,4.69-6.46,8.98-13.37,14.76-18.78,4.35-4.08,6.87-9.97,12.47-12.72,1.83-.9,1.11-3.44,2.15-4.34,4.62-4,6.1-10.35,10.59-14.19,3.17-2.71,4.99-5.85,5.83-9.65.63-2.81,2.36-4.5,4.64-5.67,6.48-3.33,11.22-8.96,12.43-15.55.94-5.13,3.97-10.69,2.9-15.05-1.06-4.36,2.25-5.01,2.83-7.53,0,0-.18.03-.18.03Z"/>
    <path class="cls-4" d="M740.91,243.21c-5.74,7.59-11.29,15.33-17.26,22.72-7.28,9.02-12.34,19.6-20.21,28.21-3.91,4.28-5.39,10.13-8.72,14.97-8.39,12.2-16.18,24.82-24.03,37.39-4.89,7.82-9.45,15.84-14.16,23.77-.35.59-.7,1.16-2.29.98,2.76-5.01,5.25-9.88,8.06-14.57,12.11-20.22,25.47-39.62,38.41-59.31,11.81-17.98,24.37-35.4,37.41-52.49.76-.99,1.39-1.97,2.8-1.62v-.05Z"/>
    <path class="cls-4" d="M699.16,404.67c-3.62-1.21-6.94-2.8-10.06-4.93-11.6-7.92-23.69-15.05-36.03-21.76-1.09-.59-2.19-.85-1.43-2.45,1.08-2.26,2.43-1.1,3.61-.34,9.5,6.09,18.99,12.2,28.47,18.33,5.34,3.45,10.86,6.64,15.44,11.15Z"/>
    <path class="cls-4" d="M914.59,101.85c.65.66,2.61,1.46,1.18,2.22-2.27,1.22.58,5.37-3.26,5-1.97-.19-2.7-2.12-3.91-3.35,2.63,1.74-.26-5.07,3.19-2.2.43.36,1.74,1,1.29-.73-.66-2.49.56-1.42,1.52-.95Z"/>
    <path class="cls-4" d="M921.61,96.11c-2.29.2-3.34-2.33-5.35-1.32-.81.41-1.56.9-1.95-.18-.17-.47.17-1.26.48-1.79.46-.79,1.2-1.13,2.1-.74,1.89.83,3.58,1.89,4.72,4.02Z"/>
    <path class="cls-4" d="M740.9,243.26c1.68-5.6,6.43-8.98,9.53-13.55-2.03,5.3-6.47,8.87-9.52,13.47,0,.03,0,.08,0,.08Z"/>
    <path class="cls-4" d="M847.7,644.34c-2.04,2.9-1.47,6.41-2.58,9.56-.24-5.45,1.62-10.75,1.74-16.24,1.36,2.08.62,4.56.84,6.86,0,.01,0-.18,0-.18Z"/>
    <path class="cls-4" d="M795.21,1001.01c4.54-1.99,6.3.98,7.84,3.38,2.02,3.15,2,6.7-.61,9.84-3.72,4.47-11.55,3.25-13.53-2-.29-.76-.85-1.61,0-2.23.73-.53,1.82-.29,2.1.53,1.24,3.61,3.41,5.74,7.36,4.2,2.72-1.06,4.01-3.6,4.12-6.49.16-4.59-3.21-5.95-7.29-7.23Z"/>
    <path class="cls-4" d="M842.87,155.96c3.67,2.33,4.8,7.38,2.44,10.99-2.66,4.09-7.36,5.53-10.81,3.31-3.15-2.02-4.02-7.98-1.73-11.84,1.98-3.34,6.84-4.53,10.1-2.46ZM844.34,166.08c1.76-3.23,1.49-6.31-1.65-8.18-2.82-1.68-5.69-1.27-8.04,1.84-3.11,4.1-.1,6.37,2.3,8.22,2.51,1.93,5.26.92,7.39-1.87Z"/>
    <path class="cls-4" d="M481.53,791.46c-3.07,6.76-7.28,11.51-10.67,16.94,1.91.47,2.05-1.1,3.8-1.41-3.29,5.39-6.34,10.19-10.69,15.35.6-4.16,3.28-5.75,4.77-8.1.98-1.54,1.05-1.51-.25-3.74-.58-.99.34-1.52.7-2.15,3.28-5.75,7.2-11.03,12.35-16.89Z"/>
    <path class="cls-4" d="M643.12,465.57c5.17-10.58,13.22-19.22,19.52-29.07-5.48,10.37-13.12,19.28-19.52,29.07Z"/>
    <path class="cls-4" d="M478.31,700.1c-6.02,8.4-12.04,16.8-18.06,25.2,4.22-8.76,11.14-15.73,15.96-24.09.46-.8,1.18-1.18,2.1-1v-.11Z"/>
    <path class="cls-4" d="M431.74,770.51c-3.98,7.09-7.41,14.34-13.69,19.57,4.56-6.52,9.13-13.05,13.69-19.57Z"/>
    <path class="cls-4" d="M523.13,707.57c-4.81,6.82-9.61,13.64-14.42,20.46,3.4-7.75,9.09-13.86,14.42-20.46Z"/>
    <path class="cls-4" d="M478.31,700.2c3.7-8.51,10.57-14.84,15.36-22.6-4.05,8.22-10.14,15.03-15.35,22.47,0,.02,0,.13,0,.13Z"/>
    <path class="cls-4" d="M612.21,570.37c3.17-7.25,8.64-12.91,13.14-19.25-3.12,7.28-8.81,12.8-13.14,19.25Z"/>
    <path class="cls-4" d="M474.76,816.28c-3.28,7.45-8.28,13.79-12.83,20.43,4.28-6.81,8.55-13.62,12.83-20.43Z"/>
    <path class="cls-4" d="M536.68,622.25c-4.25,7.21-10.08,13.41-14.22,20.8,3.52-7.74,9.5-13.79,14.22-20.8Z"/>
    <path class="cls-4" d="M640.86,472.56c4.06-6.17,8.79-11.96,12.72-18.3-3.31,6.7-7.48,12.82-12.72,18.3Z"/>
    <path class="cls-4" d="M660.46,465.92c2.8-6.96,8.55-11.78,12.2-18.08-2.72,6.97-8.78,11.65-12.2,18.08Z"/>
    <path class="cls-4" d="M496.98,698.91c-4.33,7.34-9.91,12.23-13.24,18.75,3.7-6.26,6.96-12.82,13.24-18.75Z"/>
    <path class="cls-4" d="M619.09,555.89c2.99-6.31,6.76-12.06,11.74-16.95-3.22,6.15-8.41,10.88-11.74,16.95Z"/>
    <path class="cls-4" d="M529.91,627.63c2.97-6.2,6.97-11.66,11.52-16.6-2.78,6.2-8.74,10.27-11.52,16.6Z"/>
    <path class="cls-4" d="M694.55,463.13c-1.82,4.41-5.07,7.78-8.2,11.24,2.16-4.16,4.24-8.36,8.2-11.24Z"/>
    <path class="cls-4" d="M445.13,793.16c2.99-4.76,5.98-9.53,8.97-14.29.17.11.34.21.52.32-2.99,4.76-5.98,9.53-8.97,14.29-.17-.11-.34-.21-.52-.32Z"/>
    <path class="cls-4" d="M447.45,799.85c-2.98,4.74-5.96,9.49-8.94,14.23-.12-.07-.24-.14-.36-.22,2.94-4.68,5.88-9.36,8.82-14.04.16,0,.32.02.48.03Z"/>
    <path class="cls-4" d="M681.47,496.94c-2.68,3.76-5.35,7.51-8.03,11.27-.07-.05-.15-.1-.22-.15,2.44-3.89,4.88-7.78,7.32-11.66.31.18.62.36.93.54Z"/>
    <path class="cls-4" d="M453.89,841.44c3.04-4.12,5.81-8.44,8.81-12.59-2.73,4.35-4.62,9.32-8.81,12.59Z"/>
  </g>
  <g>
    <path class="cls-2" d="M149.69,462.45v84.45c0,18.05,4.77,20.75,11.83,26.77h-57.89c8.51-5.19,12.45-10.58,12.45-26.77v-34.24H44.29v34.24c0,17.22,4.77,21.79,12.45,26.77H-1.78c8.71-5.19,12.45-10.79,12.45-26.77v-84.66c0-16.18-3.94-21.79-12.45-26.97h58.51c-6.22,4.57-12.45,9.75-12.45,27.18v24.69h71.79v-24.69c0-15.98-3.94-22.62-13.07-27.18h59.34c-8.3,4.98-12.66,10.58-12.66,27.18Z"/>
    <path class="cls-2" d="M266.72,576.78c-49.59,0-81.13-26.14-81.13-71.38,0-42.33,30.71-73.24,84.03-73.24,48.35,0,79.68,26.77,79.68,70.96s-33.82,73.66-82.58,73.66ZM269,456.85c-28.63,0-46.89,18.47-46.89,49.17,0,18.05,6.02,31.33,17.64,39.22,8.3,5.6,16.81,6.85,27.39,6.85,27.6,0,45.65-17.64,45.65-49.38,0-29.67-18.05-45.86-43.78-45.86Z"/>
    <path class="cls-2" d="M499.93,562.88c-.42,1.45-1.45,4.15-1.45,6.02,0,1.66,1.87,3.73,2.91,4.77h-129.06c9.13-4.56,13.07-11.2,13.07-26.77v-84.66c0-16.39-4.15-21.79-12.45-26.97h59.34c-9.13,4.15-13.28,11-13.28,26.97v87.77h45.23c17.01,0,32.16-3.94,43.99-12.24l-8.3,25.11Z"/>
    <path class="cls-2" d="M649.33,562.88c-.42,1.45-1.45,4.15-1.45,6.02,0,1.66,1.87,3.73,2.91,4.77h-129.06c9.13-4.56,13.07-11.2,13.07-26.77v-84.66c0-16.39-4.15-21.79-12.45-26.97h59.34c-9.13,4.15-13.28,11-13.28,26.97v87.77h45.23c17.01,0,32.16-3.94,43.99-12.24l-8.3,25.11Z"/>
    <path class="cls-2" d="M778.8,454.15l-53.95,74.07v18.67c0,16.39,4.36,21.58,12.66,26.77h-58.93c8.3-5.19,12.66-10.37,12.66-26.77v-18.67l-51.04-71.79c-6.85-9.54-12.24-15.77-21.37-21.16h60.8c-3.94,1.66-5.6,4.77-5.6,8.09s1.87,7.68,4.56,11.62l31.12,46.06,31.33-46.06c2.28-3.53,4.77-7.05,4.77-11,0-4.56-2.28-7.05-5.81-8.71h55.4c-7.89,6.02-11.83,12.24-16.6,18.88Z"/>
    <path class="cls-2" d="M1016.38,475.31l-22.62,88.6c-.21,1.04-.62,3.53-.62,4.77,0,2.07,1.45,3.94,2.49,4.98h-56.02c2.49-1.87,2.7-2.91,2.7-4.77v-1.04c0-.42-.42-3.11-.62-3.94l-22.62-99.8-25.52,97.1c-.41,1.87-1.45,4.57-1.45,7.89,0,1.66,1.66,3.53,2.49,4.56h-55.19c1.45-1.24,3.11-2.7,3.11-5.4,0-2.07-.83-4.77-1.24-6.22l-21.99-88.6c-4.36-17.22-9.75-30.09-16.81-38.18h51.66c-3.94,2.91-6.43,5.6-6.43,12.66,0,3.11.62,8.92,1.45,12.45l19.5,87.77,27.18-103.33c.21-1.04,1.04-2.9,1.04-5.6,0-1.45-1.66-3.32-2.28-3.94h51.46c-1.04.62-2.49,1.87-2.49,3.73,0,2.49.62,4.57.83,5.81l23.86,105.82,20.34-90.26c.83-3.73,1.66-8.51,1.66-11,0-7.89-1.87-10.79-7.68-14.11h49.38c-6.22,10.79-11.62,24.9-15.56,40.05Z"/>
    <path class="cls-2" d="M1129.67,576.78c-49.59,0-81.13-26.14-81.13-71.38,0-42.33,30.71-73.24,84.03-73.24,48.35,0,79.68,26.77,79.68,70.96s-33.82,73.66-82.58,73.66ZM1131.95,456.85c-28.63,0-46.89,18.47-46.89,49.17,0,18.05,6.02,31.33,17.64,39.22,8.3,5.6,16.81,6.85,27.39,6.85,27.6,0,45.65-17.64,45.65-49.38,0-29.67-18.05-45.86-43.78-45.86Z"/>
    <path class="cls-2" d="M1315.58,576.78c-49.59,0-81.13-26.14-81.13-71.38,0-42.33,30.71-73.24,84.03-73.24,48.35,0,79.68,26.77,79.68,70.96s-33.82,73.66-82.58,73.66ZM1317.86,456.85c-28.63,0-46.89,18.47-46.89,49.17,0,18.05,6.02,31.33,17.64,39.22,8.3,5.6,16.81,6.85,27.39,6.85,27.6,0,45.65-17.64,45.65-49.38,0-29.67-18.05-45.86-43.78-45.86Z"/>
    <path class="cls-2" d="M1491.95,573.66h-69.51c6.85-5.4,11.83-8.71,11.83-26.56v-85.07c0-15.77-3.94-22.41-13.07-26.77h75.73c17.64,0,32.37,2.08,42.33,5.6,25.52,9.13,42.12,32.16,42.12,61.62,0,44.82-30.71,71.17-89.43,71.17ZM1495.68,458.92h-27.8v91.09h24.07c17.22,0,29.88-2.49,38.39-9.13,8.92-7.05,14.52-19.92,14.52-35.9,0-31.54-16.18-46.06-49.17-46.06Z"/>
  </g>
  <g>
    <path class="cls-1" d="M207.44,701.54c0-.62.54-1.16,1.16-1.16h35.79c.63,0,1.16.53,1.16,1.16v1.52c0,.62-.53,1.16-1.16,1.16h-32.67v27.13h28.29c.62,0,1.16.53,1.16,1.16,0,.98.18,2.59-1.16,2.59h-28.29l-.09,26.6c0,.62-.54,1.16-1.43,1.16h-1.61c-.62,0-1.16-.54-1.16-1.16v-60.16Z"/>
    <path class="cls-1" d="M265.46,761.79l27.49-62.12c.18-.36.62-.62,1.07-.62h.27c.45,0,.89.09,1.16.62l27.22,62.12c.18.53.18,1.07-.8,1.07h-2.32c-.62,0-1.07-.45-1.25-.8l-7.23-16.42h-34.09l-7.14,16.42c-.18.36-.62.8-1.25.8h-2.5c-.62,0-.89-.36-.62-1.07ZM309.55,742.15l-15.26-35.97h-.18l-15.53,35.97h30.97Z"/>
    <path class="cls-1" d="M350.52,701.54c0-.62.54-1.16,1.16-1.16h1.96c.62,0,1.16.53,1.16,1.16v60.16c0,.71-.62,1.16-1.25,1.16h-1.87c-.62,0-1.16-.54-1.16-1.16v-60.16Z"/>
    <path class="cls-1" d="M391.58,701.54c0-.62.45-1.16,1.16-1.16h22.14c10.89,0,19.9,8.21,19.9,19.1,0,9.02-6.25,16.24-14.73,18.65l13.03,23.12c.45.71.27,1.61-.62,1.61h-2.77c-.62,0-.98-.27-1.25-.8l-12.94-23.38c-1.16.09-2.14.09-3.3.09h-16.42v22.94c0,.62-.54,1.16-1.43,1.16h-1.61c-.62,0-1.16-.54-1.16-1.16v-60.16ZM414.7,735.01c8.57,0,15.8-6.69,15.8-15.53s-7.23-14.99-15.89-14.99h-18.74v30.52h18.83Z"/>
    <path class="cls-1" d="M475.12,700.11c.09-.36.45-.62.8-.62h.98c.45,0,.71.18.89.62l18.39,54.8h.18l18.48-54.8c.18-.45.45-.62.89-.62h.98c.36,0,.71.27.8.62l12.67,61.58c.18.89-.18,1.16-.98,1.16h-2.14c-.54,0-.98-.45-1.07-.98l-10.08-52.3h-.18l-18.03,53.46c-.18.54-.71.71-1.25.71h-.36c-.45,0-.98-.09-1.16-.71l-18.03-53.46h-.18l-10.09,52.3c-.09.54-.53.98-1.07.98h-2.14c-.8,0-1.16-.27-.98-1.16l12.67-61.58Z"/>
    <path class="cls-1" d="M589.64,699.49c17.94,0,32.22,14.37,32.22,32.22s-14.28,32.04-32.22,32.04-32.13-14.1-32.13-32.04,14.28-32.22,32.13-32.22ZM589.64,759.82c15.62,0,28.29-12.49,28.29-28.11s-12.67-28.29-28.29-28.29-28.2,12.67-28.2,28.29,12.58,28.11,28.2,28.11Z"/>
    <path class="cls-1" d="M653.46,701.54c0-.62.53-1.16,1.16-1.16h1.87c.62,0,1.16.53,1.16,1.16v38.11c0,11.51,7.23,19.99,19.1,19.99s19.28-8.39,19.28-19.9v-38.2c0-.71.36-1.16,1.25-1.16h1.78c.62,0,1.16.53,1.16,1.16v38.56c0,13.66-9.28,23.65-23.47,23.65s-23.29-10-23.29-23.65v-38.56Z"/>
    <path class="cls-1" d="M736.28,700.65c0-.71.62-1.16,1.34-1.16h1.52l42.84,55.78h.09v-53.73c0-.62.53-1.16,1.16-1.16h1.78c.62,0,1.16.53,1.16,1.16v61.05c0,.8-.71,1.16-1.43,1.16h-1.16c-.09,0-.8-.27-43.2-56.32h-.09v54.27c0,.62-.54,1.16-1.16,1.16h-1.7c-.62,0-1.16-.54-1.16-1.16v-61.05Z"/>
    <path class="cls-1" d="M832.41,704.22h-17.05c-.89,0-1.16-.54-1.16-1.34v-1.34c0-.71.54-1.16,1.16-1.16h38.38c.71,0,1.16.53,1.16,1.16v1.52c0,.62-.45,1.16-1.16,1.16h-17.14v57.48c0,.62-.53,1.16-1.43,1.16h-1.61c-.62,0-1.16-.54-1.16-1.16v-57.48Z"/>
    <path class="cls-1" d="M920.15,701.54c0-.62.54-1.16,1.16-1.16h19.01c10.98,0,18.48,6.34,18.48,16.15,0,7.05-4.28,12.23-9.82,14.46,6.34,1.7,11.78,6.34,11.78,14.91,0,10-8.03,16.96-19.64,16.96h-19.81c-.62,0-1.16-.54-1.16-1.16v-60.16ZM941.48,759.11c8.66,0,14.73-5.53,14.73-13.3s-6.78-12.67-15.26-12.67h-16.69v25.97h17.23ZM940.94,729.3c8.39,0,13.3-5.27,13.3-12.59,0-7.76-5.36-12.41-13.92-12.41h-15.98v24.99h16.6Z"/>
    <path class="cls-1" d="M984.68,761.79l27.49-62.12c.18-.36.62-.62,1.07-.62h.27c.45,0,.89.09,1.16.62l27.22,62.12c.18.53.18,1.07-.8,1.07h-2.32c-.62,0-1.07-.45-1.25-.8l-7.23-16.42h-34.09l-7.14,16.42c-.18.36-.62.8-1.25.8h-2.5c-.62,0-.89-.36-.62-1.07ZM1028.77,742.15l-15.26-35.97h-.18l-15.53,35.97h30.97Z"/>
    <path class="cls-1" d="M1069.74,701.54c0-.62.45-1.16,1.16-1.16h22.14c10.89,0,19.9,8.21,19.9,19.1,0,9.02-6.25,16.24-14.73,18.65l13.03,23.12c.45.71.27,1.61-.62,1.61h-2.77c-.62,0-.98-.27-1.25-.8l-12.94-23.38c-1.16.09-2.14.09-3.3.09h-16.42v22.94c0,.62-.54,1.16-1.43,1.16h-1.61c-.62,0-1.16-.54-1.16-1.16v-60.16ZM1092.86,735.01c8.57,0,15.8-6.69,15.8-15.53s-7.23-14.99-15.89-14.99h-18.74v30.52h18.83Z"/>
    <path class="cls-1" d="M1145.61,701.54c0-.62.54-1.16,1.16-1.16h19.01c10.98,0,18.48,6.34,18.48,16.15,0,7.05-4.28,12.23-9.82,14.46,6.34,1.7,11.78,6.34,11.78,14.91,0,10-8.03,16.96-19.64,16.96h-19.81c-.62,0-1.16-.54-1.16-1.16v-60.16ZM1166.94,759.11c8.66,0,14.73-5.53,14.73-13.3s-6.78-12.67-15.26-12.67h-16.69v25.97h17.23ZM1166.4,729.3c8.39,0,13.3-5.27,13.3-12.59,0-7.76-5.36-12.41-13.92-12.41h-15.98v24.99h16.6Z"/>
    <path class="cls-1" d="M1219.06,701.54c0-.62.54-1.16,1.16-1.16h35.79c.62,0,1.16.53,1.16,1.16v1.52c0,.62-.53,1.16-1.16,1.16h-32.67v24.63h28.29c.62,0,1.16.54,1.16,1.16v1.52c0,.63-.54,1.16-1.16,1.16h-28.29v26.42h32.67c.62,0,1.16.53,1.16,1.16v1.43c0,.62-.53,1.16-1.16,1.16h-35.79c-.62,0-1.16-.54-1.16-1.16v-60.16Z"/>
    <path class="cls-1" d="M1290.29,701.54c0-.62.45-1.16,1.16-1.16h22.14c10.89,0,19.9,8.21,19.9,19.1,0,9.02-6.25,16.24-14.73,18.65l13.03,23.12c.45.71.27,1.61-.62,1.61h-2.77c-.62,0-.98-.27-1.25-.8l-12.94-23.38c-1.16.09-2.14.09-3.3.09h-16.42v22.94c0,.62-.54,1.16-1.43,1.16h-1.61c-.62,0-1.16-.54-1.16-1.16v-60.16ZM1313.4,735.01c8.57,0,15.8-6.69,15.8-15.53s-7.23-14.99-15.89-14.99h-18.74v30.52h18.83Z"/>
    <path class="cls-1" d="M1362.41,754.56l.8-1.07c.62-.71,1.25-.98,1.96-.36.89.8,7.5,6.87,16.51,6.87,8.12,0,15-5.44,15-11.96,0-7.94-6.52-11.51-17.32-15.17-10.35-3.66-17.23-7.32-17.23-17.58,0-6.69,5.35-15.8,19.28-15.8,8.84,0,15.35,4.55,15.35,4.55.36.27.98.89.36,1.87-.27.36-.53.8-.71,1.16-.54.71-1.07.98-1.96.45-.27-.18-6.25-4.2-13.12-4.2-10.98,0-15.08,6.78-15.08,11.87,0,7.59,5.8,10.89,14.81,13.83,12.23,4.2,19.99,8.48,19.99,18.83,0,8.93-9.19,15.89-19.46,15.89s-17.76-6.25-18.92-7.32c-.53-.45-.98-.89-.27-1.87Z"/>
  </g>
</svg>